<svg width="208" height="52" viewBox="0 0 208 52" fill="none" xmlns="http://www.w3.org/2000/svg">
<rect width="208" height="52" rx="8" fill="#071C2C"/>
<g opacity="0.36" clip-path="url(#clip0_497_3727)">
<g filter="url(#filter0_d_497_3727)">
<path d="M43.9957 39.7964C42.0573 41.3795 39.9409 41.1295 37.9036 40.3796C35.7476 39.6131 33.7696 39.5797 31.495 40.3796C28.6467 41.4128 27.1434 41.1129 25.4424 39.7964C15.7899 31.4141 17.214 18.649 28.172 18.1824C30.8423 18.2991 32.7015 19.4156 34.2641 19.5156C36.5981 19.1156 38.8332 17.9658 41.3255 18.1158C44.3122 18.3157 46.5671 19.3156 48.0506 21.1154C41.8793 24.2317 43.343 31.0808 49 32.9972C47.8726 35.4969 46.4089 37.9799 43.976 39.813L43.9957 39.7964ZM34.0663 18.0824C33.7696 14.3662 37.3498 11.3 41.4639 11C42.0376 15.2995 36.8355 18.4991 34.0663 18.0824Z" fill="url(#paint0_linear_497_3727)"/>
</g>
</g>
<path d="M69.052 21.072C68.412 21.072 67.82 20.968 67.276 20.76C66.74 20.544 66.272 20.244 65.872 19.86C65.48 19.476 65.172 19.024 64.948 18.504C64.732 17.984 64.624 17.416 64.624 16.8C64.624 16.184 64.732 15.616 64.948 15.096C65.172 14.576 65.484 14.124 65.884 13.74C66.284 13.356 66.752 13.06 67.288 12.852C67.832 12.636 68.424 12.528 69.064 12.528C69.704 12.528 70.288 12.628 70.816 12.828C71.352 13.028 71.808 13.332 72.184 13.74L71.632 14.304C71.28 13.952 70.892 13.7 70.468 13.548C70.044 13.396 69.588 13.32 69.1 13.32C68.58 13.32 68.1 13.408 67.66 13.584C67.228 13.752 66.848 13.996 66.52 14.316C66.2 14.628 65.948 14.996 65.764 15.42C65.588 15.836 65.5 16.296 65.5 16.8C65.5 17.296 65.588 17.756 65.764 18.18C65.948 18.604 66.2 18.976 66.52 19.296C66.848 19.608 67.228 19.852 67.66 20.028C68.1 20.196 68.576 20.28 69.088 20.28C69.568 20.28 70.02 20.208 70.444 20.064C70.876 19.92 71.272 19.676 71.632 19.332L72.136 20.004C71.736 20.356 71.268 20.624 70.732 20.808C70.196 20.984 69.636 21.072 69.052 21.072ZM71.284 19.896V16.8H72.136V20.004L71.284 19.896ZM75.4413 16.356H79.8813V17.112H75.4413V16.356ZM75.5373 20.232H80.5893V21H74.6493V12.6H80.4093V13.368H75.5373V20.232ZM84.3086 21V13.368H81.3566V12.6H88.1486V13.368H85.1966V21H84.3086ZM92.7078 21V12.6H93.5958V21H92.7078ZM97.9609 21V13.368H95.0089V12.6H101.801V13.368H98.8489V21H97.9609ZM110.032 21.072C109.4 21.072 108.812 20.968 108.268 20.76C107.732 20.544 107.264 20.244 106.864 19.86C106.472 19.468 106.164 19.016 105.94 18.504C105.724 17.984 105.616 17.416 105.616 16.8C105.616 16.184 105.724 15.62 105.94 15.108C106.164 14.588 106.472 14.136 106.864 13.752C107.264 13.36 107.732 13.06 108.268 12.852C108.804 12.636 109.392 12.528 110.032 12.528C110.664 12.528 111.248 12.636 111.784 12.852C112.32 13.06 112.784 13.356 113.176 13.74C113.576 14.124 113.884 14.576 114.1 15.096C114.324 15.616 114.436 16.184 114.436 16.8C114.436 17.416 114.324 17.984 114.1 18.504C113.884 19.024 113.576 19.476 113.176 19.86C112.784 20.244 112.32 20.544 111.784 20.76C111.248 20.968 110.664 21.072 110.032 21.072ZM110.032 20.28C110.536 20.28 111 20.196 111.424 20.028C111.856 19.852 112.228 19.608 112.54 19.296C112.86 18.976 113.108 18.608 113.284 18.192C113.46 17.768 113.548 17.304 113.548 16.8C113.548 16.296 113.46 15.836 113.284 15.42C113.108 14.996 112.86 14.628 112.54 14.316C112.228 13.996 111.856 13.752 111.424 13.584C111 13.408 110.536 13.32 110.032 13.32C109.528 13.32 109.06 13.408 108.628 13.584C108.196 13.752 107.82 13.996 107.5 14.316C107.188 14.628 106.94 14.996 106.756 15.42C106.58 15.836 106.492 16.296 106.492 16.8C106.492 17.296 106.58 17.756 106.756 18.18C106.94 18.604 107.188 18.976 107.5 19.296C107.82 19.608 108.196 19.852 108.628 20.028C109.06 20.196 109.528 20.28 110.032 20.28ZM116.427 21V12.6H117.159L122.955 19.896H122.571V12.6H123.447V21H122.715L116.931 13.704H117.315V21H116.427Z" fill="white"/>
<path d="M69.894 40.14C69.1287 40.14 68.424 40.0187 67.78 39.776C67.1453 39.524 66.59 39.174 66.114 38.726C65.638 38.2687 65.2693 37.732 65.008 37.116C64.7467 36.5 64.616 35.828 64.616 35.1C64.616 34.372 64.7467 33.7 65.008 33.084C65.2693 32.468 65.638 31.936 66.114 31.488C66.5993 31.0307 67.164 30.6807 67.808 30.438C68.452 30.186 69.1567 30.06 69.922 30.06C70.7527 30.06 71.4993 30.1953 72.162 30.466C72.834 30.7367 73.3987 31.1333 73.856 31.656L72.708 32.776C72.3253 32.3933 71.91 32.1133 71.462 31.936C71.0233 31.7493 70.538 31.656 70.006 31.656C69.4927 31.656 69.0167 31.74 68.578 31.908C68.1393 32.076 67.7613 32.314 67.444 32.622C67.1267 32.93 66.8793 33.294 66.702 33.714C66.534 34.134 66.45 34.596 66.45 35.1C66.45 35.5947 66.534 36.052 66.702 36.472C66.8793 36.892 67.1267 37.2607 67.444 37.578C67.7613 37.886 68.1347 38.124 68.564 38.292C68.9933 38.46 69.4693 38.544 69.992 38.544C70.4773 38.544 70.944 38.4693 71.392 38.32C71.8493 38.1613 72.2833 37.9 72.694 37.536L73.73 38.894C73.2167 39.3047 72.6193 39.6173 71.938 39.832C71.266 40.0373 70.5847 40.14 69.894 40.14ZM72.008 38.656V34.988H73.73V38.894L72.008 38.656ZM79.3225 40.098C78.5571 40.098 77.8758 39.9347 77.2785 39.608C76.6811 39.272 76.2098 38.8147 75.8645 38.236C75.5191 37.6573 75.3465 36.9993 75.3465 36.262C75.3465 35.5153 75.5191 34.8573 75.8645 34.288C76.2098 33.7093 76.6811 33.2567 77.2785 32.93C77.8758 32.6033 78.5571 32.44 79.3225 32.44C80.0971 32.44 80.7831 32.6033 81.3805 32.93C81.9871 33.2567 82.4585 33.7047 82.7945 34.274C83.1398 34.8433 83.3125 35.506 83.3125 36.262C83.3125 36.9993 83.1398 37.6573 82.7945 38.236C82.4585 38.8147 81.9871 39.272 81.3805 39.608C80.7831 39.9347 80.0971 40.098 79.3225 40.098ZM79.3225 38.6C79.7518 38.6 80.1345 38.5067 80.4705 38.32C80.8065 38.1333 81.0678 37.8627 81.2545 37.508C81.4505 37.1533 81.5485 36.738 81.5485 36.262C81.5485 35.7767 81.4505 35.3613 81.2545 35.016C81.0678 34.6613 80.8065 34.3907 80.4705 34.204C80.1345 34.0173 79.7565 33.924 79.3365 33.924C78.9071 33.924 78.5245 34.0173 78.1885 34.204C77.8618 34.3907 77.6005 34.6613 77.4045 35.016C77.2085 35.3613 77.1105 35.7767 77.1105 36.262C77.1105 36.738 77.2085 37.1533 77.4045 37.508C77.6005 37.8627 77.8618 38.1333 78.1885 38.32C78.5245 38.5067 78.9025 38.6 79.3225 38.6ZM88.3459 40.098C87.5806 40.098 86.8992 39.9347 86.3019 39.608C85.7046 39.272 85.2332 38.8147 84.8879 38.236C84.5426 37.6573 84.3699 36.9993 84.3699 36.262C84.3699 35.5153 84.5426 34.8573 84.8879 34.288C85.2332 33.7093 85.7046 33.2567 86.3019 32.93C86.8992 32.6033 87.5806 32.44 88.3459 32.44C89.1206 32.44 89.8066 32.6033 90.4039 32.93C91.0106 33.2567 91.4819 33.7047 91.8179 34.274C92.1632 34.8433 92.3359 35.506 92.3359 36.262C92.3359 36.9993 92.1632 37.6573 91.8179 38.236C91.4819 38.8147 91.0106 39.272 90.4039 39.608C89.8066 39.9347 89.1206 40.098 88.3459 40.098ZM88.3459 38.6C88.7752 38.6 89.1579 38.5067 89.4939 38.32C89.8299 38.1333 90.0912 37.8627 90.2779 37.508C90.4739 37.1533 90.5719 36.738 90.5719 36.262C90.5719 35.7767 90.4739 35.3613 90.2779 35.016C90.0912 34.6613 89.8299 34.3907 89.4939 34.204C89.1579 34.0173 88.7799 33.924 88.3599 33.924C87.9306 33.924 87.5479 34.0173 87.2119 34.204C86.8852 34.3907 86.6239 34.6613 86.4279 35.016C86.2319 35.3613 86.1339 35.7767 86.1339 36.262C86.1339 36.738 86.2319 37.1533 86.4279 37.508C86.6239 37.8627 86.8852 38.1333 87.2119 38.32C87.5479 38.5067 87.9259 38.6 88.3459 38.6ZM97.3973 42.814C96.7067 42.814 96.03 42.7207 95.3673 42.534C94.714 42.3567 94.1773 42.0953 93.7573 41.75L94.5413 40.434C94.868 40.7047 95.2787 40.9193 95.7733 41.078C96.2773 41.246 96.786 41.33 97.2993 41.33C98.1207 41.33 98.7227 41.1387 99.1053 40.756C99.488 40.3827 99.6793 39.818 99.6793 39.062V37.732L99.8193 36.038L99.7633 34.344V32.524H101.429V38.866C101.429 40.2193 101.084 41.2133 100.393 41.848C99.7027 42.492 98.704 42.814 97.3973 42.814ZM97.1733 39.664C96.464 39.664 95.82 39.5147 95.2413 39.216C94.672 38.908 94.2193 38.4833 93.8833 37.942C93.5567 37.4007 93.3933 36.766 93.3933 36.038C93.3933 35.3193 93.5567 34.6893 93.8833 34.148C94.2193 33.6067 94.672 33.1867 95.2413 32.888C95.82 32.5893 96.464 32.44 97.1733 32.44C97.808 32.44 98.3773 32.566 98.8813 32.818C99.3853 33.07 99.7867 33.462 100.085 33.994C100.393 34.526 100.547 35.2073 100.547 36.038C100.547 36.8687 100.393 37.5547 100.085 38.096C99.7867 38.628 99.3853 39.0247 98.8813 39.286C98.3773 39.538 97.808 39.664 97.1733 39.664ZM97.4393 38.18C97.878 38.18 98.27 38.0913 98.6153 37.914C98.9607 37.7273 99.2267 37.4753 99.4133 37.158C99.6093 36.8313 99.7073 36.458 99.7073 36.038C99.7073 35.618 99.6093 35.2493 99.4133 34.932C99.2267 34.6053 98.9607 34.358 98.6153 34.19C98.27 34.0127 97.878 33.924 97.4393 33.924C97.0007 33.924 96.604 34.0127 96.2493 34.19C95.904 34.358 95.6333 34.6053 95.4373 34.932C95.2507 35.2493 95.1573 35.618 95.1573 36.038C95.1573 36.458 95.2507 36.8313 95.4373 37.158C95.6333 37.4753 95.904 37.7273 96.2493 37.914C96.604 38.0913 97.0007 38.18 97.4393 38.18ZM103.73 40V29.612H105.48V40H103.73ZM111.291 40.098C110.46 40.098 109.732 39.9347 109.107 39.608C108.491 39.272 108.01 38.8147 107.665 38.236C107.329 37.6573 107.161 36.9993 107.161 36.262C107.161 35.5153 107.324 34.8573 107.651 34.288C107.987 33.7093 108.444 33.2567 109.023 32.93C109.611 32.6033 110.278 32.44 111.025 32.44C111.753 32.44 112.402 32.5987 112.971 32.916C113.54 33.2333 113.988 33.6813 114.315 34.26C114.642 34.8387 114.805 35.52 114.805 36.304C114.805 36.3787 114.8 36.4627 114.791 36.556C114.791 36.6493 114.786 36.738 114.777 36.822H108.547V35.66H113.853L113.167 36.024C113.176 35.5947 113.088 35.2167 112.901 34.89C112.714 34.5633 112.458 34.3067 112.131 34.12C111.814 33.9333 111.445 33.84 111.025 33.84C110.596 33.84 110.218 33.9333 109.891 34.12C109.574 34.3067 109.322 34.568 109.135 34.904C108.958 35.2307 108.869 35.618 108.869 36.066V36.346C108.869 36.794 108.972 37.1907 109.177 37.536C109.382 37.8813 109.672 38.1473 110.045 38.334C110.418 38.5207 110.848 38.614 111.333 38.614C111.753 38.614 112.131 38.5487 112.467 38.418C112.803 38.2873 113.102 38.082 113.363 37.802L114.301 38.88C113.965 39.272 113.54 39.5753 113.027 39.79C112.523 39.9953 111.944 40.098 111.291 40.098ZM120.523 40V30.2H124.555C125.423 30.2 126.165 30.34 126.781 30.62C127.406 30.9 127.887 31.3013 128.223 31.824C128.559 32.3467 128.727 32.9673 128.727 33.686C128.727 34.4047 128.559 35.0253 128.223 35.548C127.887 36.0707 127.406 36.472 126.781 36.752C126.165 37.032 125.423 37.172 124.555 37.172H121.531L122.343 36.318V40H120.523ZM122.343 36.514L121.531 35.632H124.471C125.274 35.632 125.876 35.464 126.277 35.128C126.688 34.7827 126.893 34.302 126.893 33.686C126.893 33.0607 126.688 32.58 126.277 32.244C125.876 31.908 125.274 31.74 124.471 31.74H121.531L122.343 30.844V36.514ZM130.513 40V29.612H132.263V40H130.513ZM139.166 40V38.488L139.068 38.166V35.52C139.068 35.0067 138.914 34.61 138.606 34.33C138.298 34.0407 137.831 33.896 137.206 33.896C136.786 33.896 136.371 33.9613 135.96 34.092C135.559 34.2227 135.218 34.4047 134.938 34.638L134.252 33.364C134.653 33.056 135.129 32.8273 135.68 32.678C136.24 32.5193 136.819 32.44 137.416 32.44C138.499 32.44 139.334 32.7013 139.922 33.224C140.519 33.7373 140.818 34.5353 140.818 35.618V40H139.166ZM136.814 40.098C136.254 40.098 135.764 40.0047 135.344 39.818C134.924 39.622 134.597 39.356 134.364 39.02C134.14 38.6747 134.028 38.2873 134.028 37.858C134.028 37.438 134.126 37.06 134.322 36.724C134.527 36.388 134.859 36.122 135.316 35.926C135.773 35.73 136.38 35.632 137.136 35.632H139.306V36.794H137.262C136.665 36.794 136.263 36.892 136.058 37.088C135.853 37.2747 135.75 37.508 135.75 37.788C135.75 38.1053 135.876 38.3573 136.128 38.544C136.38 38.7307 136.73 38.824 137.178 38.824C137.607 38.824 137.99 38.726 138.326 38.53C138.671 38.334 138.919 38.0447 139.068 37.662L139.362 38.712C139.194 39.1507 138.891 39.4913 138.452 39.734C138.023 39.9767 137.477 40.098 136.814 40.098ZM143.543 42.814C143.179 42.814 142.815 42.7533 142.451 42.632C142.087 42.5107 141.784 42.3427 141.541 42.128L142.241 40.84C142.419 40.9987 142.619 41.1247 142.843 41.218C143.067 41.3113 143.296 41.358 143.529 41.358C143.847 41.358 144.103 41.2787 144.299 41.12C144.495 40.9613 144.677 40.6953 144.845 40.322L145.279 39.342L145.419 39.132L148.247 32.524H149.927L146.427 40.602C146.194 41.162 145.933 41.6053 145.643 41.932C145.363 42.2587 145.046 42.4873 144.691 42.618C144.346 42.7487 143.963 42.814 143.543 42.814ZM145.083 40.266L141.709 32.524H143.529L146.273 38.978L145.083 40.266Z" fill="white"/>
<defs>
<filter id="filter0_d_497_3727" x="15" y="11" width="38" height="38" filterUnits="userSpaceOnUse" color-interpolation-filters="sRGB">
<feFlood flood-opacity="0" result="BackgroundImageFix"/>
<feColorMatrix in="SourceAlpha" type="matrix" values="0 0 0 0 0 0 0 0 0 0 0 0 0 0 0 0 0 0 127 0" result="hardAlpha"/>
<feOffset dy="4"/>
<feGaussianBlur stdDeviation="2"/>
<feComposite in2="hardAlpha" operator="out"/>
<feColorMatrix type="matrix" values="0 0 0 0 0 0 0 0 0 0 0 0 0 0 0 0 0 0 0.25 0"/>
<feBlend mode="normal" in2="BackgroundImageFix" result="effect1_dropShadow_497_3727"/>
<feBlend mode="normal" in="SourceGraphic" in2="effect1_dropShadow_497_3727" result="shape"/>
</filter>
<linearGradient id="paint0_linear_497_3727" x1="27.2546" y1="20.3689" x2="37.0614" y2="27.5556" gradientUnits="userSpaceOnUse">
<stop stop-color="#F0E6FC"/>
<stop offset="1" stop-color="#D6F5E8"/>
</linearGradient>
<clipPath id="clip0_497_3727">
<rect width="36" height="36" fill="white" transform="translate(16 8)"/>
</clipPath>
</defs>
</svg>
