<svg width="313" height="49" viewBox="0 0 313 49" fill="none" xmlns="http://www.w3.org/2000/svg">
<g clip-path="url(#clip0_2530_895)">
<g clip-path="url(#clip1_2530_895)">
<rect x="1.19922" y="0.241699" width="48" height="48" rx="9.6" fill="#E73C33"/>
<path d="M49.1951 28.934L49.1928 41.0281C49.1928 43.3119 49.4153 44.6368 47.3803 46.6966C45.3836 48.7176 43.1359 48.5038 41.1617 48.5338C42.2222 48.2708 43.0883 47.5128 43.343 46.4955C43.3506 46.4626 43.3581 46.4297 43.3657 46.3969C43.3657 46.3914 43.3694 46.3841 43.3713 46.3786C43.3845 46.3275 43.3959 46.2727 43.4072 46.2179C43.4223 46.1466 43.4393 46.0772 43.4525 46.0042C43.4676 45.9293 43.4808 45.8544 43.494 45.7777C43.5072 45.7046 43.5204 45.6334 43.5317 45.5603C43.5431 45.4836 43.5525 45.4069 43.5638 45.3302C43.5751 45.2553 43.5827 45.1823 43.5921 45.1056C43.5997 45.0288 43.6072 44.9503 43.6129 44.8718C43.6185 44.7951 43.628 44.7202 43.6317 44.6416C43.6374 44.5613 43.6393 44.4827 43.6431 44.4005C43.6449 44.322 43.6487 44.2453 43.6506 44.1667C43.6506 44.0864 43.6506 44.0042 43.6506 43.922C43.6506 43.8416 43.6506 43.7631 43.6506 43.6809C43.6487 43.5987 43.6431 43.5147 43.6393 43.4325C43.6355 43.3503 43.6317 43.2681 43.6242 43.1841C43.6185 43.1001 43.6091 43.0161 43.5997 42.9302C43.5921 42.848 43.5846 42.764 43.5751 42.68C43.5638 42.5942 43.5506 42.5083 43.5393 42.4206C43.528 42.3348 43.5147 42.2508 43.5015 42.1649C43.4864 42.0773 43.4695 41.9878 43.4525 41.9001C43.4374 41.8143 43.4204 41.7284 43.4034 41.6407C43.3845 41.5512 43.3619 41.4599 43.3393 41.3704C43.3185 41.2827 43.2978 41.1951 43.2751 41.1074C43.2506 41.0161 43.2242 40.9229 43.1977 40.8316C43.1732 40.7421 43.1487 40.6544 43.1204 40.5631C43.0921 40.4718 43.0581 40.3786 43.0279 40.2855C42.9958 40.1942 42.9675 40.1028 42.9355 40.0115C42.9015 39.9165 42.8638 39.8197 42.826 39.7248C42.7902 39.6334 42.7562 39.5403 42.7203 39.449C42.6807 39.3522 42.6373 39.2535 42.5958 39.1567C42.5543 39.0618 42.5166 38.9686 42.4732 38.8755C42.4298 38.7768 42.3807 38.68 42.3335 38.5814C42.2882 38.4864 42.243 38.3896 42.1939 38.2928C42.1429 38.1942 42.0882 38.0937 42.0354 37.9933C41.9844 37.8965 41.9354 37.7997 41.8807 37.7029C41.8259 37.6006 41.7637 37.4983 41.7052 37.3978C41.6486 37.2992 41.5938 37.2024 41.5354 37.102C41.4731 36.9997 41.4052 36.8956 41.3391 36.7915C41.2768 36.6928 41.2165 36.5924 41.1504 36.4937C41.0806 36.3878 41.0051 36.28 40.9334 36.1741C40.8674 36.0737 40.8013 35.975 40.7296 35.8746C40.6542 35.7668 40.5711 35.6572 40.4938 35.5495C40.4202 35.449 40.3485 35.3485 40.2711 35.2463C40.1881 35.1367 40.1013 35.0253 40.0145 34.9157C39.9352 34.8134 39.8579 34.7129 39.7748 34.6107C39.6843 34.4974 39.5861 34.3842 39.4937 34.2709C39.4088 34.1686 39.3257 34.0682 39.2371 33.9659C39.1389 33.849 39.0333 33.7339 38.9295 33.6171C38.8408 33.5148 38.754 33.4143 38.6597 33.312C38.5521 33.1951 38.4389 33.0746 38.3276 32.9559C38.2313 32.8536 38.1389 32.7513 38.0407 32.649C37.9256 32.5303 37.8049 32.4098 37.6841 32.2892C37.5822 32.1851 37.4841 32.0828 37.3765 31.9769C37.2539 31.8545 37.1218 31.7321 36.9935 31.6098C36.8859 31.5057 36.7803 31.4034 36.6689 31.2974C36.535 31.1714 36.3916 31.0436 36.2519 30.9157C36.1406 30.8134 36.0312 30.7111 35.9179 30.6089C35.7689 30.4755 35.6123 30.3422 35.4575 30.207C35.3443 30.1084 35.2349 30.0116 35.1198 29.9111C34.9575 29.7742 34.7896 29.6353 34.6216 29.4984C34.5046 29.3997 34.3914 29.3048 34.2725 29.2061C34.0744 29.0436 33.8668 28.881 33.6593 28.7185C33.5649 28.6436 33.4762 28.5705 33.38 28.4956C33.0762 28.2582 32.7611 28.0189 32.4403 27.7778C31.795 27.2938 30.8251 27.5075 30.4855 28.207L25.9794 37.5549L22.9736 34.8517L24.0359 21.7158C24.0359 21.7158 16.5202 15.3597 18.2619 13.7578C20.0035 12.1542 27.6532 17.177 27.6532 17.177L41.7297 13.4766L45.2092 15.7158L35.7915 21.9897C35.4085 22.2454 35.5047 22.7897 35.9538 22.9249C40.9051 24.4007 45.2375 26.4482 48.9699 28.8299C49.0397 28.8737 49.1133 28.9084 49.1869 28.934H49.1951Z" fill="white"/>
</g>
<path d="M81.0511 11.2356C81.0511 11.4038 80.9761 11.488 80.8257 11.488C80.5896 11.488 80.3748 11.0779 80.1815 10.2576C79.7951 8.63815 79.2582 7.53392 78.5712 6.94494C77.8842 6.35595 76.7891 6.06156 75.286 6.06156C74.7063 6.06156 74.2016 6.08265 73.7723 6.12465L73.8045 25.3066C73.826 25.8325 73.9762 26.1689 74.2554 26.3162C74.5346 26.4635 75.286 26.5897 76.5099 26.6948C76.746 26.7159 76.8642 26.8105 76.8642 26.9787C76.8642 27.1891 76.6925 27.2942 76.3489 27.2942C76.2844 27.2942 76.1234 27.2838 75.8658 27.2627C75.5437 27.2416 75.2754 27.2311 75.0606 27.2311L71.7432 27.1365L66.268 27.2311C65.9674 27.2311 65.8171 27.1469 65.8171 26.9787C65.8171 26.8525 65.8599 26.779 65.9459 26.7579C66.0318 26.7368 66.3861 26.7159 67.0087 26.6948C68.1897 26.6528 68.823 26.3793 68.909 25.8745C68.9518 25.601 68.9734 23.4663 68.9734 19.47V6.12465C68.7373 6.10356 68.4581 6.0931 68.136 6.0931C66.4183 6.0931 65.1622 6.4086 64.3677 7.03958C63.5947 7.64947 63.0901 8.74324 62.854 10.3207C62.7036 11.2461 62.5104 11.7089 62.2742 11.7089C62.081 11.7089 61.9844 11.5827 61.9844 11.3303C61.9844 11.1621 62.0273 10.5836 62.1132 9.59508C62.2849 7.53392 62.3924 6.12465 62.4353 5.36747H62.9184L65.2695 5.33592C65.3339 5.33592 66.0747 5.35702 67.4918 5.39902C68.9305 5.44102 70.7555 5.46212 72.9671 5.46212C74.191 5.46212 75.286 5.45167 76.2522 5.43057C77.2185 5.40947 78.0987 5.39902 78.8932 5.39902C79.6018 5.39902 80.1387 5.37792 80.5036 5.33592C80.568 6.70299 80.7291 8.44885 80.9867 10.5731C81.0296 10.9306 81.0511 11.1514 81.0511 11.2356ZM99.6328 27.1049C99.6328 27.2311 99.5362 27.2942 99.3429 27.2942C99.3645 27.2942 99.1497 27.2942 98.6988 27.2942C98.2479 27.2731 97.872 27.2627 97.5715 27.2627H96.7663C94.9198 27.2627 93.7817 27.2416 93.3524 27.1996H92.837L92.0641 27.2311C91.7849 27.2522 91.6454 27.1785 91.6454 27.0103C91.6454 26.8841 91.6991 26.821 91.8064 26.821L92.5472 26.8525C93.0196 26.8736 93.2879 26.7474 93.3524 26.474C93.3952 26.3058 93.4168 25.254 93.4168 23.319V18.6182C93.4168 16.6621 93.3201 15.5052 93.1269 15.1478C92.8477 14.601 92.311 14.3275 91.5165 14.3275C90.6791 14.3275 90.035 14.6956 89.5841 15.4317C89.3693 15.7892 89.262 16.557 89.262 17.7348V22.688C89.262 24.2235 89.2727 25.0647 89.2942 25.212V25.5906L89.262 26.3478C89.2405 26.6632 89.6914 26.821 90.6147 26.821C90.808 26.821 90.9046 26.8841 90.9046 27.0103C90.9046 27.1576 90.7651 27.2311 90.4859 27.2311C90.4859 27.2311 90.3999 27.2311 90.2282 27.2311C90.0565 27.21 89.7989 27.1996 89.4552 27.1996H88.0381L86.2345 27.2311L84.3343 27.2942H83.3681C83.046 27.2942 82.8849 27.2311 82.8849 27.1049C82.8849 27.0418 82.9065 26.9998 82.9494 26.9787C82.9922 26.9576 83.0889 26.9472 83.2392 26.9472C84.0551 26.9472 84.5382 26.9156 84.6886 26.8525C84.8389 26.7894 84.9356 26.5475 84.9784 26.1269C85 25.8745 85.0106 24.6125 85.0106 22.341V10.7624C85.0106 8.49085 84.9569 7.18688 84.8496 6.85029C84.7636 6.4928 84.3127 6.31395 83.4969 6.31395C82.8743 6.31395 82.5629 6.25085 82.5629 6.12465C82.5629 5.99846 82.9278 5.91426 83.6579 5.87226C85.3112 5.76716 86.868 5.49367 88.328 5.05198C88.6072 4.96778 88.8111 4.92578 88.9399 4.92578C89.1116 4.92578 89.1976 5.51477 89.1976 6.69254V7.32353C89.1976 7.74412 89.1976 8.30155 89.1976 8.99564C89.1761 9.66862 89.1654 10.1314 89.1654 10.3838V15.4001C89.788 14.5379 90.3893 13.9489 90.969 13.6334C91.5703 13.3179 92.3755 13.1601 93.3846 13.1601C95.5102 13.1601 96.8414 14.0015 97.3783 15.6841C97.5715 16.2309 97.6681 17.1143 97.6681 18.3342V25.6852C97.6681 26.232 97.7541 26.5686 97.9258 26.6948C98.119 26.821 98.5806 26.8841 99.3107 26.8841C99.5255 26.8841 99.6328 26.9576 99.6328 27.1049ZM115.097 23.3506C115.097 23.8134 114.818 24.4232 114.259 25.1804C113.057 26.7999 111.489 27.6097 109.557 27.6097C107.388 27.6097 105.606 26.9367 104.21 25.5906C102.815 24.2444 102.117 22.5198 102.117 20.4165C102.117 18.3553 102.793 16.641 104.146 15.274C105.499 13.8858 107.184 13.1917 109.203 13.1917C110.577 13.1917 111.747 13.4861 112.713 14.0751C113.787 14.7272 114.485 15.663 114.807 16.883C114.893 17.2616 114.957 17.7137 115 18.2396C114.506 18.2816 112.52 18.3131 109.042 18.3342C108.505 18.3342 107.829 18.3553 107.013 18.3973C106.948 19.1545 106.916 19.7959 106.916 20.3218C106.916 22.7827 107.442 24.5283 108.494 25.559C109.117 26.1689 109.879 26.474 110.781 26.474C111.532 26.474 112.252 26.2216 112.939 25.7168C113.647 25.212 114.184 24.5599 114.549 23.7607C114.721 23.361 114.86 23.1613 114.968 23.1613C115.054 23.1613 115.097 23.2244 115.097 23.3506ZM111.038 17.861C111.06 16.2415 110.942 15.1162 110.684 14.4852C110.426 13.8542 109.976 13.5387 109.331 13.5387C108.022 13.5387 107.27 14.9796 107.077 17.861C107.528 17.8399 108.473 17.8294 109.911 17.8294C110.341 17.8294 110.716 17.8399 111.038 17.861ZM138.795 20.9844C138.795 22.8984 138.097 24.4863 136.701 25.7483C135.327 26.9892 133.566 27.6097 131.419 27.6097C130.109 27.6097 128.306 27.1785 126.008 26.3162C125.837 26.2531 125.686 26.2216 125.558 26.2216C125.192 26.2216 124.913 26.6001 124.72 27.3573C124.656 27.5886 124.57 27.7044 124.462 27.7044C124.291 27.7044 124.205 27.5571 124.205 27.2627C124.205 26.9892 124.258 26.5055 124.366 25.8114C124.452 25.2435 124.495 24.581 124.495 23.8238C124.495 23.2139 124.484 22.73 124.462 22.3725C124.419 21.6574 124.398 21.2368 124.398 21.1106C124.398 20.774 124.505 20.6058 124.72 20.6058C124.935 20.6058 125.128 21.0579 125.3 21.9624C125.6 23.5188 126.277 24.7283 127.329 25.5906C128.467 26.5159 129.691 26.9787 131.001 26.9787C132.16 26.9787 133.137 26.6212 133.931 25.9061C134.726 25.1909 135.123 24.3181 135.123 23.2875C135.123 22.4041 134.865 21.6996 134.35 21.1737C133.964 20.7951 132.718 20.0483 130.614 18.9337C128.274 17.7137 126.685 16.4939 125.847 15.274C125.074 14.1593 124.688 12.8342 124.688 11.2987C124.688 9.48998 125.343 7.99651 126.653 6.81874C127.962 5.61987 129.616 5.02043 131.613 5.02043C132.686 5.02043 133.835 5.27282 135.059 5.77761C135.467 5.94581 135.756 6.03001 135.928 6.03001C136.25 6.03001 136.465 5.75651 136.572 5.20973C136.615 5.02043 136.712 4.92578 136.862 4.92578C137.077 4.92578 137.184 5.06243 137.184 5.33592C137.184 5.44102 137.163 5.73561 137.12 6.2193C137.077 6.70299 137.056 7.10268 137.056 7.41818C137.056 8.51195 137.098 9.43733 137.184 10.1945C137.206 10.2576 137.217 10.3418 137.217 10.4469C137.217 10.6362 137.131 10.7309 136.959 10.7309C136.766 10.7309 136.572 10.3943 136.379 9.72127C136.186 9.04829 135.842 8.38575 135.349 7.73367C134.876 7.06068 134.393 6.57679 133.899 6.2824C133.255 5.90381 132.503 5.71451 131.645 5.71451C130.442 5.71451 129.487 5.99846 128.778 6.56634C128.07 7.13423 127.715 7.91251 127.715 8.90099C127.715 9.76327 128.048 10.5311 128.714 11.2041C129.379 11.8562 130.657 12.6974 132.547 13.728C134.865 14.99 136.401 15.9996 137.152 16.7568C138.247 17.8714 138.795 19.2807 138.795 20.9844ZM159.088 27.0103C159.088 27.1576 158.691 27.2311 157.897 27.2311H157.349C156.941 27.2311 156.383 27.2207 155.674 27.1996C154.987 27.1785 154.322 27.168 153.678 27.168C152.883 27.168 152.282 27.1785 151.874 27.1996C151.466 27.2207 151.176 27.2311 151.004 27.2311C150.704 27.2311 150.553 27.1576 150.553 27.0103C150.553 26.863 150.843 26.779 151.423 26.7579C151.788 26.7368 151.971 26.6212 151.971 26.4109C151.971 26.2005 151.52 25.3802 150.618 23.95C150.36 23.5714 149.984 22.9824 149.491 22.1832C149.147 21.5943 148.653 20.8266 148.009 19.8801V24.5494C148.009 25.6641 148.041 26.3162 148.106 26.5055C148.191 26.6948 148.438 26.7894 148.846 26.7894C148.975 26.7894 149.083 26.779 149.169 26.7579H149.426C149.641 26.7579 149.748 26.8421 149.748 27.0103C149.748 27.1785 149.63 27.2627 149.394 27.2627H149.265L148.428 27.2311H147.365L145.368 27.1996H142.244C142.136 27.2207 142.019 27.2311 141.89 27.2311C141.653 27.2311 141.535 27.1576 141.535 27.0103C141.535 26.863 141.814 26.779 142.373 26.7579C143.081 26.7368 143.479 26.6737 143.564 26.5686C143.672 26.4635 143.725 25.9376 143.725 24.9911L143.693 8.36465C143.693 7.54437 143.597 7.03958 143.403 6.85029C143.232 6.66099 142.748 6.57679 141.954 6.59789C141.546 6.59789 141.342 6.52434 141.342 6.37705C141.342 6.25085 141.385 6.1773 141.471 6.1562C141.557 6.1351 141.868 6.1142 142.405 6.0931C144.574 6.00891 146.098 5.73561 146.978 5.27282C147.279 5.10463 147.537 5.00998 147.751 4.98888C147.837 5.28327 147.891 5.85116 147.912 6.69254L147.977 10.0683C147.998 11.2041 148.009 12.792 148.009 14.8323V19.4385C148.352 19.165 148.911 18.6077 149.684 17.7663C150.006 17.4089 150.489 16.8725 151.133 16.1573C152.164 15.0216 152.679 14.4117 152.679 14.3275C152.679 14.2224 152.615 14.1593 152.486 14.1382C152.357 14.1171 151.927 14.0962 151.198 14.0751C150.704 14.0751 150.457 13.9804 150.457 13.7911C150.457 13.6229 150.586 13.5387 150.843 13.5387L153.291 13.6018L155.803 13.5387C156.19 13.5387 156.383 13.6018 156.383 13.728C156.383 13.8542 155.943 13.9384 155.062 13.9804C154.483 14.0015 154.01 14.1908 153.645 14.5483C152.98 15.1793 152.132 16.0627 151.101 17.1985L154.805 22.688C154.998 23.0035 155.309 23.4768 155.739 24.1078C155.803 24.192 155.964 24.4232 156.222 24.8018L156.769 25.559L157.027 25.9376C157.263 26.2951 157.457 26.5266 157.607 26.6317C157.757 26.7159 158.036 26.7579 158.444 26.7579C158.874 26.7579 159.088 26.8421 159.088 27.0103ZM173.859 13.7596C173.859 13.9069 173.816 14.0015 173.73 14.0435C173.644 14.0646 173.343 14.0751 172.828 14.0751C172.248 14.0751 171.905 14.1066 171.797 14.1697L171.604 14.5168L171.218 15.621C171.046 16.1258 170.66 17.1458 170.058 18.6813C170.015 18.8075 169.543 20.101 168.641 22.5618C166.515 28.388 165.141 31.9109 164.519 33.1308C163.746 34.6452 162.758 35.4024 161.556 35.4024C160.868 35.4024 160.31 35.2027 159.881 34.803C159.473 34.4033 159.269 33.8776 159.269 33.2255C159.269 32.1948 159.849 31.6796 161.008 31.6796C161.394 31.6796 161.706 31.8058 161.942 32.0582C162.049 32.1633 162.232 32.4579 162.49 32.9416C162.64 33.1519 162.844 33.257 163.101 33.257C163.531 33.257 163.939 32.8996 164.325 32.1844C164.733 31.4903 165.281 30.1652 165.968 28.2092C165.796 27.8726 165.463 27.126 164.969 25.9692C164.325 24.3706 163.466 22.2779 162.393 19.6909C162.135 19.0599 161.555 17.6821 160.654 15.5579C160.353 14.8427 160.096 14.4221 159.881 14.2959C159.666 14.1486 159.172 14.0646 158.399 14.0435C158.142 14.0435 158.013 13.9593 158.013 13.7911C158.013 13.6229 158.142 13.5387 158.399 13.5387H158.979C159.301 13.5387 159.784 13.5492 160.428 13.5703C161.072 13.5914 161.566 13.6018 161.91 13.6018L165.839 13.5703C165.968 13.5492 166.118 13.5387 166.29 13.5387C166.526 13.5387 166.644 13.6123 166.644 13.7596C166.644 13.9489 166.322 14.0331 165.678 14.012C165.034 13.9909 164.712 14.1277 164.712 14.4221C164.712 14.6325 164.798 14.9585 164.969 15.4001C165.206 15.9891 165.334 16.3362 165.356 16.4413C166.408 19.3018 167.267 21.4787 167.933 22.972C169.929 17.9872 170.928 15.1478 170.928 14.4537C170.928 14.2224 170.681 14.1066 170.187 14.1066C169.156 14.1066 168.641 14.012 168.641 13.8227C168.641 13.6334 168.77 13.5387 169.028 13.5387C169.242 13.5387 169.457 13.5492 169.672 13.5703C170.08 13.6123 170.638 13.6334 171.347 13.6334C171.432 13.6334 171.744 13.6229 172.281 13.6018C172.839 13.5598 173.204 13.5387 173.376 13.5387H173.569C173.762 13.5387 173.859 13.6123 173.859 13.7596ZM184.86 25.1804C184.86 25.4117 184.656 25.7168 184.248 26.0954C183.196 27.0838 181.747 27.5782 179.9 27.5782C178.204 27.5782 177.087 27.168 176.551 26.3478C176.336 26.0323 176.207 25.7379 176.164 25.4644C176.143 25.1909 176.132 24.4863 176.132 23.3506V21.8362C176.132 21.4365 176.132 21.0159 176.132 20.5742C176.11 20.1325 176.1 19.9117 176.1 19.9117V17.0723L176.068 14.8007C176.068 14.4221 176.014 14.2013 175.907 14.1382C175.799 14.0751 175.477 14.0435 174.94 14.0435C174.296 14.0435 173.974 13.9593 173.974 13.7911C173.974 13.6649 174.092 13.5807 174.328 13.5387C176.347 13.4756 178.086 12.403 179.546 10.3207C179.739 10.0263 179.889 9.87902 179.997 9.87902C180.126 9.87902 180.19 10.0263 180.19 10.3207C180.169 12.1295 180.244 13.1181 180.416 13.2863C180.587 13.4545 181.113 13.5387 181.993 13.5387C182.896 13.5387 183.529 13.4967 183.894 13.4125C183.937 13.3914 183.98 13.381 184.023 13.381C184.109 13.381 184.152 13.4441 184.152 13.5703C184.152 13.8647 184.012 14.012 183.733 14.012C182.852 14.0331 181.876 14.0435 180.802 14.0435C180.716 14.0435 180.566 14.0331 180.351 14.012V14.6745C180.351 20.3114 180.426 23.6134 180.577 24.581C180.77 25.801 181.371 26.4109 182.38 26.4109C182.831 26.4109 183.411 26.0954 184.119 25.4644C184.463 25.17 184.678 25.0227 184.764 25.0227C184.828 25.0227 184.86 25.0753 184.86 25.1804ZM198.175 15.4948C198.175 16.1047 197.992 16.6095 197.628 17.0092C197.261 17.3878 196.79 17.577 196.211 17.577C195.051 17.577 194.471 17.0512 194.471 15.9996C194.471 15.6421 194.61 15.2844 194.89 14.9269C194.955 14.8427 194.987 14.7692 194.987 14.7061C194.987 14.5168 194.846 14.4221 194.568 14.4221C193.837 14.4221 193.28 14.9796 192.893 16.0942C192.678 16.7252 192.571 18.2711 192.571 20.732V23.0351L192.603 25.8114C192.603 26.3793 192.893 26.6843 193.473 26.7263C193.815 26.7474 194.224 26.7579 194.697 26.7579C194.932 26.779 195.051 26.8525 195.051 26.9787C195.051 27.1469 194.955 27.2311 194.761 27.2311H194.117C193.924 27.21 192.99 27.1996 191.315 27.1996C191.4 27.1996 190.917 27.21 189.866 27.2311L188.288 27.2627H187.064C186.848 27.2838 186.601 27.2942 186.323 27.2942C186.085 27.2942 185.968 27.2207 185.968 27.0734C185.968 26.9261 186.118 26.8525 186.42 26.8525C187.299 26.8314 187.825 26.7474 187.998 26.6001C188.191 26.432 188.288 25.9587 188.288 25.1804L188.255 16.6621C188.255 15.9469 188.147 15.4528 187.933 15.1793C187.74 14.9058 187.289 14.7376 186.581 14.6745C186.021 14.6325 185.7 14.601 185.614 14.5799C185.55 14.5588 185.517 14.4852 185.517 14.359C185.517 14.2328 185.603 14.1697 185.775 14.1697C185.968 14.1697 186.15 14.1802 186.323 14.2013H186.967C188.62 14.2013 190.401 13.8647 192.314 13.1917C192.42 13.6123 192.475 14.0962 192.475 14.643V15.968C192.881 14.9374 193.322 14.2117 193.795 13.7911C194.288 13.3705 194.922 13.1601 195.695 13.1601C196.424 13.1601 197.016 13.381 197.467 13.8227C197.938 14.2644 198.175 14.8218 198.175 15.4948ZM214.935 25.5275C214.935 25.6957 214.764 25.9272 214.42 26.2216C213.498 27.0418 212.359 27.452 211.006 27.452C210.126 27.452 209.482 27.2731 209.073 26.9156C208.687 26.5581 208.429 25.9165 208.3 24.9911C207.334 26.7159 206.014 27.5782 204.339 27.5782C203.417 27.5782 202.664 27.2942 202.084 26.7263C201.527 26.1585 201.247 25.4224 201.247 24.5179C201.247 21.8678 203.566 20.3007 208.204 19.817V19.1545C208.204 17.0512 208.129 15.7576 207.978 15.274L207.946 15.1162C207.646 14.0646 206.883 13.5387 205.659 13.5387C204.951 13.5387 204.383 13.7385 203.952 14.1382C203.524 14.5379 203.308 14.9269 203.308 15.3055C203.308 15.5159 203.566 15.6421 204.081 15.6841C204.854 15.7472 205.241 16.21 205.241 17.0723C205.241 17.535 205.08 17.9241 204.758 18.2396C204.458 18.534 204.061 18.6813 203.566 18.6813C202.944 18.6813 202.429 18.5024 202.02 18.1449C201.634 17.7663 201.44 17.2931 201.44 16.7252C201.44 15.8207 201.903 15.0005 202.825 14.2644C203.749 13.5283 204.963 13.1601 206.465 13.1601C208.699 13.1601 210.255 13.5492 211.135 14.3275C211.843 14.9796 212.198 16.1153 212.198 17.7348V23.1297C212.198 24.1813 212.21 24.7914 212.23 24.9596C212.338 25.843 212.648 26.2847 213.164 26.2847C213.53 26.2847 213.981 26.0323 214.517 25.5275C214.625 25.4224 214.71 25.3697 214.774 25.3697C214.883 25.3697 214.935 25.4224 214.935 25.5275ZM208.204 21.7731V20.2272C206.122 20.6269 205.08 21.7836 205.08 23.6976C205.08 25.17 205.595 25.9061 206.626 25.9061C207.205 25.9061 207.614 25.5906 207.85 24.9596C208.087 24.3286 208.204 23.2664 208.204 21.7731ZM222.965 7.00803C222.965 7.59702 222.762 8.10181 222.353 8.5224C221.946 8.94299 221.451 9.15339 220.871 9.15339C220.272 9.15339 219.766 8.95364 219.358 8.55395C218.951 8.15426 218.746 7.64947 218.746 7.03958C218.746 6.4506 218.951 5.96691 219.358 5.58832C219.766 5.20973 220.292 5.02043 220.936 5.02043C221.516 5.02043 221.999 5.20973 222.385 5.58832C222.772 5.96691 222.965 6.44015 222.965 7.00803ZM225.284 27.0103C225.284 27.1576 225.187 27.2311 224.994 27.2311L220.71 27.168L217.618 27.2311C217.49 27.2311 217.329 27.2416 217.135 27.2627C216.964 27.2627 216.868 27.2627 216.845 27.2627C216.588 27.2627 216.459 27.1785 216.459 27.0103C216.459 26.8841 216.707 26.8105 217.2 26.7894C217.93 26.7683 218.359 26.6948 218.488 26.5686C218.617 26.4213 218.681 26.0007 218.681 25.3066V16.252C218.681 15.4528 218.607 14.9796 218.456 14.8323C218.327 14.6641 217.908 14.5799 217.2 14.5799C216.749 14.5799 216.481 14.5694 216.395 14.5483C216.33 14.5272 216.298 14.4537 216.298 14.3275C216.298 14.1802 216.459 14.1066 216.781 14.1066C219.144 14.0855 221.161 13.728 222.836 13.034C222.88 13.2863 222.933 13.9804 222.997 15.1162L223.029 19.123V25.0542C223.029 25.9165 223.106 26.4213 223.255 26.5686C223.428 26.7159 223.985 26.7894 224.93 26.7894C225.167 26.7894 225.284 26.863 225.284 27.0103ZM236.075 26.9787C236.075 27.1469 235.667 27.2311 234.851 27.2311C234.658 27.2311 234.056 27.21 233.048 27.168C232.533 27.1469 232.027 27.1365 231.534 27.1365C231.061 27.1365 230.181 27.1576 228.893 27.1996L227.927 27.2311C227.454 27.2522 227.218 27.1785 227.218 27.0103C227.218 26.8421 227.464 26.7683 227.959 26.7894C228.71 26.8105 229.139 26.7368 229.247 26.5686C229.376 26.4004 229.441 25.7694 229.441 24.6756V8.04916C229.441 7.33398 229.364 6.91339 229.215 6.78719C229.064 6.63989 228.623 6.56634 227.895 6.56634C227.357 6.56634 227.089 6.49279 227.089 6.3455C227.089 6.1773 227.367 6.08265 227.927 6.06156C230.33 5.97736 232.295 5.61987 233.821 4.98888C233.799 5.61987 233.789 9.31113 233.789 16.0627V23.9185C233.789 25.3486 233.821 26.19 233.885 26.4424C233.97 26.6737 234.24 26.779 234.69 26.7579L235.657 26.7263C235.934 26.7263 236.075 26.8105 236.075 26.9787ZM248.61 22.8458C248.61 24.255 248.171 25.4013 247.29 26.2847C246.41 27.1469 245.273 27.5782 243.876 27.5782C243.189 27.5782 242.374 27.41 241.428 27.0734C240.655 26.7999 240.152 26.6632 239.914 26.6632C239.507 26.6632 239.238 26.8105 239.109 27.1049C238.98 27.3993 238.883 27.5466 238.819 27.5466C238.69 27.5466 238.626 27.4731 238.626 27.3258C238.626 27.1996 238.648 26.9998 238.69 26.7263C238.755 26.3267 238.787 25.6326 238.787 24.6441C238.787 24.6021 238.787 24.4968 238.787 24.3286C238.767 24.1604 238.755 23.9289 238.755 23.6345V23.0982C238.755 22.8669 238.809 22.7511 238.916 22.7511C239.044 22.7511 239.141 22.9089 239.205 23.2244C239.399 24.339 239.946 25.2751 240.848 26.0323C241.75 26.7683 242.76 27.1365 243.876 27.1365C244.584 27.1365 245.154 26.9261 245.583 26.5055C246.033 26.0638 246.259 25.4959 246.259 24.8018C246.259 24.255 246.056 23.7923 245.647 23.4137C245.347 23.1402 244.542 22.7931 243.231 22.3725C241.621 21.8467 240.451 21.2157 239.721 20.4796C239.012 19.7224 238.658 18.7655 238.658 17.6086C238.658 16.3677 239.089 15.316 239.946 14.4537C240.806 13.5914 241.859 13.1601 243.103 13.1601C243.576 13.1601 244.391 13.3074 245.55 13.6018C245.723 13.6438 245.852 13.6649 245.937 13.6649C246.41 13.6649 246.764 13.381 247 12.8131C247.044 12.708 247.096 12.6554 247.161 12.6554C247.312 12.6554 247.386 12.7816 247.386 13.034C247.386 13.034 247.376 13.2337 247.354 13.6334C247.334 13.7176 247.322 13.8647 247.322 14.0751C247.322 14.9374 247.376 15.8207 247.483 16.7252V16.883C247.483 17.0512 247.418 17.1354 247.29 17.1354C247.183 17.1354 247.096 17.0407 247.032 16.8514C246.41 14.7061 245.144 13.6334 243.231 13.6334C242.523 13.6334 241.933 13.8227 241.46 14.2013C241.009 14.5799 240.784 15.0636 240.784 15.6525C240.784 16.1993 240.977 16.6306 241.363 16.9461C241.75 17.2616 242.503 17.619 243.618 18.0187C245.572 18.6917 246.893 19.3649 247.579 20.0379C248.268 20.7109 248.61 21.6469 248.61 22.8458Z" fill="#071C2C"/>
<path d="M131.588 48.1956C130.906 48.1956 130.323 48.0758 129.84 47.836C129.356 47.5962 128.986 47.2649 128.728 46.8422C128.477 46.4131 128.352 45.9209 128.352 45.3657C128.352 44.8041 128.448 44.2835 128.641 43.804C128.835 43.3181 129.115 42.8954 129.482 42.5357C129.849 42.176 130.287 41.8953 130.796 41.6933C131.305 41.4851 131.872 41.381 132.497 41.381C133.173 41.381 133.753 41.5009 134.236 41.7407C134.719 41.9804 135.089 42.3149 135.347 42.7439C135.605 43.1667 135.733 43.6557 135.733 44.211C135.733 44.7725 135.634 45.2963 135.434 45.7821C135.241 46.2617 134.961 46.6813 134.593 47.0409C134.226 47.4006 133.788 47.6845 133.279 47.8928C132.777 48.0947 132.213 48.1956 131.588 48.1956ZM131.695 47.1167C132.12 47.1167 132.503 47.0441 132.844 46.899C133.186 46.7475 133.476 46.5425 133.714 46.2838C133.959 46.0187 134.146 45.7159 134.275 45.3751C134.403 45.0281 134.468 44.6653 134.468 44.2867C134.468 43.927 134.387 43.6084 134.226 43.3307C134.065 43.0531 133.83 42.8386 133.521 42.6871C133.212 42.5357 132.832 42.46 132.381 42.46C131.962 42.46 131.579 42.5357 131.231 42.6871C130.89 42.8323 130.596 43.0373 130.352 43.3023C130.113 43.5611 129.93 43.8639 129.801 44.211C129.679 44.5517 129.617 44.9114 129.617 45.29C129.617 45.6496 129.695 45.9683 129.849 46.2459C130.01 46.5235 130.245 46.7381 130.555 46.8895C130.864 47.0409 131.244 47.1167 131.695 47.1167ZM140.543 42.99C140.988 42.99 141.365 43.0784 141.674 43.255C141.983 43.4317 142.199 43.6936 142.321 44.0406C142.45 44.3813 142.463 44.8009 142.36 45.2994L141.79 48.101H140.582L141.142 45.3278C141.226 44.9177 141.187 44.599 141.026 44.3719C140.865 44.1384 140.572 44.0217 140.147 44.0217C139.703 44.0217 139.335 44.1416 139.046 44.3813C138.756 44.6211 138.559 44.9871 138.456 45.4793L137.915 48.101H136.707L137.732 43.0468H138.881L138.591 44.4854L138.398 44.0311C138.643 43.6715 138.949 43.4096 139.316 43.2456C139.69 43.0752 140.099 42.99 140.543 42.99ZM143.805 48.101L145.235 41.0781H146.443L145.805 44.2204L145.428 45.536L145.235 46.7286L144.955 48.101H143.805ZM146.926 48.1673C146.501 48.1673 146.134 48.0947 145.824 47.9496C145.515 47.7981 145.277 47.5773 145.109 47.287C144.942 46.9968 144.858 46.6371 144.858 46.208C144.858 45.7348 144.916 45.3026 145.032 44.9114C145.155 44.5138 145.332 44.1731 145.564 43.8892C145.802 43.5989 146.085 43.3781 146.414 43.2266C146.749 43.0689 147.129 42.99 147.554 42.99C147.979 42.99 148.362 43.0784 148.704 43.255C149.045 43.4254 149.316 43.6778 149.515 44.0122C149.722 44.3403 149.825 44.7378 149.825 45.2048C149.825 45.6338 149.751 46.0282 149.602 46.3879C149.461 46.7475 149.258 47.0599 148.994 47.3249C148.73 47.5899 148.42 47.7981 148.066 47.9496C147.718 48.0947 147.338 48.1673 146.926 48.1673ZM146.829 47.1545C147.177 47.1545 147.483 47.0756 147.747 46.9179C148.011 46.7538 148.221 46.5298 148.375 46.2459C148.53 45.962 148.607 45.6338 148.607 45.2616C148.607 44.8704 148.488 44.5612 148.25 44.334C148.011 44.1069 147.676 43.9933 147.245 43.9933C146.903 43.9933 146.597 44.0753 146.327 44.2394C146.063 44.3971 145.853 44.618 145.699 44.9019C145.544 45.1858 145.467 45.514 145.467 45.8862C145.467 46.2774 145.586 46.5866 145.824 46.8138C146.063 47.0409 146.398 47.1545 146.829 47.1545ZM153.463 48.1673C152.96 48.1673 152.519 48.0758 152.139 47.8928C151.766 47.7035 151.476 47.4448 151.27 47.1167C151.063 46.7822 150.96 46.391 150.96 45.943C150.96 45.3751 151.092 44.8704 151.356 44.4287C151.621 43.9807 151.981 43.6305 152.439 43.3781C152.902 43.1194 153.431 42.99 154.023 42.99C154.532 42.99 154.973 43.0815 155.347 43.2645C155.727 43.4412 156.02 43.6967 156.226 44.0311C156.432 44.3592 156.535 44.7505 156.535 45.2048C156.535 45.7664 156.403 46.2711 156.139 46.7191C155.875 47.1671 155.511 47.5205 155.047 47.7792C154.59 48.0379 154.062 48.1673 153.463 48.1673ZM153.54 47.1545C153.888 47.1545 154.194 47.0756 154.458 46.9179C154.722 46.7538 154.932 46.5298 155.086 46.2459C155.241 45.962 155.318 45.6338 155.318 45.2616C155.318 44.8704 155.199 44.5612 154.96 44.334C154.722 44.1069 154.387 43.9933 153.956 43.9933C153.614 43.9933 153.308 44.0753 153.038 44.2394C152.774 44.3971 152.564 44.618 152.41 44.9019C152.255 45.1858 152.178 45.514 152.178 45.8862C152.178 46.2838 152.297 46.5961 152.535 46.8232C152.774 47.0441 153.109 47.1545 153.54 47.1545ZM159.942 48.1673C159.523 48.1673 159.14 48.0789 158.792 47.9022C158.45 47.7256 158.177 47.4732 157.97 47.1451C157.771 46.8106 157.671 46.41 157.671 45.943C157.671 45.514 157.742 45.1196 157.884 44.7599C158.032 44.4003 158.238 44.0879 158.502 43.8229C158.766 43.5579 159.072 43.3528 159.42 43.2077C159.774 43.0626 160.161 42.99 160.579 42.99C161.011 42.99 161.381 43.0657 161.69 43.2172C162.006 43.3686 162.244 43.5989 162.405 43.9081C162.566 44.211 162.641 44.5896 162.628 45.0439C162.615 45.6685 162.499 46.2175 162.28 46.6907C162.061 47.1577 161.755 47.5205 161.362 47.7792C160.969 48.0379 160.496 48.1673 159.942 48.1673ZM160.251 47.1545C160.599 47.1545 160.905 47.0756 161.169 46.9179C161.433 46.7538 161.642 46.5298 161.797 46.2459C161.951 45.962 162.029 45.6338 162.029 45.2616C162.029 44.8704 161.909 44.5612 161.671 44.334C161.433 44.1069 161.098 43.9933 160.666 43.9933C160.325 43.9933 160.019 44.0753 159.748 44.2394C159.484 44.3971 159.275 44.618 159.12 44.9019C158.966 45.1858 158.888 45.514 158.888 45.8862C158.888 46.2774 159.008 46.5866 159.246 46.8138C159.484 47.0409 159.819 47.1545 160.251 47.1545ZM161.517 48.101L161.748 46.9463L162.077 45.6023L162.241 44.2488L162.483 43.0468H163.691L162.666 48.101H161.517ZM164.73 48.101L165.754 43.0468H166.904L166.614 44.4854L166.508 44.069C166.746 43.6589 167.049 43.3781 167.416 43.2266C167.783 43.0689 168.231 42.99 168.759 42.99L168.537 44.1163C168.485 44.1037 168.437 44.0974 168.392 44.0974C168.347 44.0911 168.295 44.0879 168.237 44.0879C167.767 44.0879 167.377 44.211 167.068 44.4571C166.759 44.6968 166.553 45.0817 166.45 45.6118L165.938 48.101H164.73ZM171.504 48.1673C171.086 48.1673 170.702 48.0789 170.355 47.9022C170.007 47.7256 169.733 47.4732 169.533 47.1451C169.334 46.8106 169.234 46.41 169.234 45.943C169.234 45.514 169.305 45.1196 169.446 44.7599C169.595 44.4003 169.801 44.0879 170.065 43.8229C170.329 43.5579 170.635 43.3528 170.983 43.2077C171.337 43.0626 171.72 42.99 172.132 42.99C172.558 42.99 172.925 43.0626 173.234 43.2077C173.543 43.3528 173.781 43.5705 173.949 43.8608C174.116 44.151 174.2 44.5107 174.2 44.9398C174.2 45.413 174.139 45.8484 174.017 46.2459C173.894 46.6371 173.717 46.9778 173.485 47.2681C173.253 47.552 172.97 47.7729 172.635 47.9306C172.306 48.0884 171.93 48.1673 171.504 48.1673ZM171.814 47.1545C172.155 47.1545 172.458 47.0756 172.722 46.9179C172.992 46.7538 173.202 46.5298 173.35 46.2459C173.504 45.962 173.582 45.6338 173.582 45.2616C173.582 44.8704 173.463 44.5612 173.224 44.334C172.992 44.1069 172.657 43.9933 172.219 43.9933C171.884 43.9933 171.582 44.0753 171.311 44.2394C171.041 44.3971 170.828 44.618 170.673 44.9019C170.525 45.1858 170.451 45.514 170.451 45.8862C170.451 46.2774 170.567 46.5866 170.799 46.8138C171.037 47.0409 171.376 47.1545 171.814 47.1545ZM173.07 48.101L173.311 46.9463L173.63 45.6023L173.794 44.2488L174.442 41.0781H175.65L174.22 48.101H173.07ZM181.214 48.101L181.745 45.4603L181.89 46.2554L179.919 41.4756H181.166L182.741 45.2994L182.006 45.3089L185.166 41.4756H186.48L182.576 46.2648L183.001 45.4603L182.46 48.101H181.214ZM188.292 48.1673C187.789 48.1673 187.348 48.0758 186.967 47.8928C186.595 47.7035 186.305 47.4448 186.098 47.1167C185.893 46.7822 185.79 46.391 185.79 45.943C185.79 45.3751 185.922 44.8704 186.186 44.4287C186.45 43.9807 186.81 43.6305 187.267 43.3781C187.732 43.1194 188.26 42.99 188.852 42.99C189.361 42.99 189.802 43.0815 190.176 43.2645C190.556 43.4412 190.848 43.6967 191.056 44.0311C191.261 44.3592 191.364 44.7505 191.364 45.2048C191.364 45.7664 191.233 46.2711 190.969 46.7191C190.703 47.1671 190.341 47.5205 189.876 47.7792C189.419 48.0379 188.892 48.1673 188.292 48.1673ZM188.368 47.1545C188.717 47.1545 189.023 47.0756 189.286 46.9179C189.552 46.7538 189.761 46.5298 189.914 46.2459C190.069 45.962 190.148 45.6338 190.148 45.2616C190.148 44.8704 190.027 44.5612 189.79 44.334C189.552 44.1069 189.216 43.9933 188.785 43.9933C188.443 43.9933 188.137 44.0753 187.867 44.2394C187.603 44.3971 187.394 44.618 187.239 44.9019C187.084 45.1858 187.008 45.514 187.008 45.8862C187.008 46.2838 187.126 46.5961 187.364 46.8232C187.603 47.0441 187.938 47.1545 188.368 47.1545ZM194.665 48.1673C194.232 48.1673 193.862 48.0789 193.554 47.9022C193.25 47.7193 193.034 47.4574 192.906 47.1167C192.777 46.7696 192.765 46.3469 192.867 45.8484L193.437 43.0468H194.645L194.075 45.82C193.999 46.2301 194.037 46.5519 194.192 46.7854C194.353 47.0125 194.643 47.1261 195.061 47.1261C195.492 47.1261 195.853 47.0062 196.142 46.7665C196.438 46.5267 196.636 46.1607 196.732 45.6685L197.274 43.0468H198.471L197.447 48.101H196.297L196.587 46.6624L196.781 47.1167C196.535 47.4763 196.227 47.7413 195.853 47.9117C195.486 48.0821 195.09 48.1673 194.665 48.1673ZM199.512 48.101L200.537 43.0468H201.686L201.396 44.4854L201.29 44.069C201.527 43.6589 201.831 43.3781 202.197 43.2266C202.566 43.0689 203.013 42.99 203.54 42.99L203.319 44.1163C203.266 44.1037 203.218 44.0974 203.174 44.0974C203.129 44.0911 203.077 44.0879 203.019 44.0879C202.55 44.0879 202.159 44.211 201.849 44.4571C201.541 44.6968 201.334 45.0817 201.231 45.6118L200.72 48.101H199.512ZM207.322 48.101L208.675 41.4756H211.409C212.097 41.4756 212.687 41.5892 213.176 41.8164C213.667 42.0372 214.04 42.3527 214.297 42.7629C214.561 43.173 214.694 43.6557 214.694 44.211C214.694 44.7978 214.591 45.331 214.384 45.8105C214.185 46.2901 213.899 46.7002 213.524 47.0409C213.158 47.3754 212.717 47.6372 212.202 47.8265C211.687 48.0095 211.113 48.101 210.481 48.101H207.322ZM208.79 47.0599H210.519C211.125 47.0599 211.644 46.94 212.075 46.7002C212.514 46.4541 212.848 46.1229 213.08 45.7064C213.313 45.29 213.428 44.8167 213.428 44.2867C213.428 43.927 213.347 43.6147 213.186 43.3497C213.025 43.0847 212.784 42.8796 212.462 42.7345C212.146 42.5893 211.751 42.5168 211.274 42.5168H209.718L208.79 47.0599ZM215.672 48.101L216.695 43.0468H217.846L217.556 44.4854L217.45 44.069C217.687 43.6589 217.991 43.3781 218.357 43.2266C218.724 43.0689 219.173 42.99 219.7 42.99L219.479 44.1163C219.426 44.1037 219.378 44.0974 219.334 44.0974C219.287 44.0911 219.237 44.0879 219.179 44.0879C218.708 44.0879 218.319 44.211 218.009 44.4571C217.701 44.6968 217.494 45.0817 217.391 45.6118L216.88 48.101H215.672ZM222.708 48.1673C222.192 48.1673 221.743 48.0758 221.365 47.8928C220.984 47.7035 220.688 47.4448 220.475 47.1167C220.27 46.7822 220.165 46.391 220.165 45.943C220.165 45.3688 220.294 44.8609 220.552 44.4192C220.809 43.9775 221.162 43.6305 221.606 43.3781C222.057 43.1194 222.569 42.99 223.142 42.99C223.625 42.99 224.044 43.0784 224.398 43.255C224.753 43.4317 225.026 43.6873 225.22 44.0217C225.419 44.3498 225.52 44.7442 225.52 45.2048C225.52 45.3247 225.512 45.4477 225.499 45.5739C225.487 45.7001 225.467 45.8168 225.441 45.9241H221.065L221.2 45.1385H224.871L224.378 45.4035C224.431 45.0817 224.408 44.8136 224.312 44.599C224.215 44.3845 224.06 44.2204 223.847 44.1069C223.635 43.9933 223.38 43.9365 223.084 43.9365C222.73 43.9365 222.42 44.0185 222.156 44.1826C221.898 44.3403 221.699 44.5675 221.558 44.864C221.415 45.1543 221.345 45.495 221.345 45.8862C221.345 46.2964 221.463 46.6119 221.703 46.8327C221.947 47.0536 222.323 47.164 222.832 47.164C223.122 47.164 223.4 47.1198 223.664 47.0315C223.927 46.9368 224.147 46.8075 224.32 46.6434L224.823 47.4669C224.553 47.7003 224.231 47.877 223.857 47.9969C223.491 48.1105 223.106 48.1673 222.708 48.1673ZM228.901 48.1673C228.483 48.1673 228.1 48.0789 227.752 47.9022C227.41 47.7256 227.136 47.4732 226.931 47.1451C226.731 46.8106 226.631 46.41 226.631 45.943C226.631 45.514 226.701 45.1196 226.844 44.7599C226.991 44.4003 227.198 44.0879 227.462 43.8229C227.726 43.5579 228.032 43.3528 228.38 43.2077C228.734 43.0626 229.121 42.99 229.539 42.99C229.97 42.99 230.341 43.0657 230.651 43.2172C230.967 43.3686 231.204 43.5989 231.365 43.9081C231.526 44.211 231.601 44.5896 231.589 45.0439C231.575 45.6685 231.46 46.2175 231.24 46.6907C231.021 47.1577 230.715 47.5205 230.323 47.7792C229.93 48.0379 229.455 48.1673 228.901 48.1673ZM229.211 47.1545C229.56 47.1545 229.866 47.0756 230.129 46.9179C230.393 46.7538 230.602 46.5298 230.757 46.2459C230.912 45.962 230.989 45.6338 230.989 45.2616C230.989 44.8704 230.87 44.5612 230.631 44.334C230.393 44.1069 230.059 43.9933 229.626 43.9933C229.286 43.9933 228.98 44.0753 228.708 44.2394C228.444 44.3971 228.235 44.618 228.08 44.9019C227.925 45.1858 227.849 45.514 227.849 45.8862C227.849 46.2774 227.967 46.5866 228.207 46.8138C228.444 47.0409 228.779 47.1545 229.211 47.1545ZM230.478 48.101L230.709 46.9463L231.037 45.6023L231.202 44.2488L231.444 43.0468H232.652L231.627 48.101H230.478ZM241.092 42.99C241.543 42.99 241.919 43.0784 242.221 43.255C242.525 43.4317 242.736 43.6936 242.859 44.0406C242.982 44.3813 242.992 44.8009 242.887 45.2994L242.318 48.101H241.11L241.68 45.3278C241.764 44.9114 241.728 44.5896 241.575 44.3624C241.42 44.1353 241.14 44.0217 240.734 44.0217C240.315 44.0217 239.971 44.1416 239.699 44.3813C239.435 44.6148 239.252 44.9776 239.149 45.4698L238.608 48.101H237.4L237.97 45.3278C238.054 44.9114 238.018 44.5896 237.863 44.3624C237.71 44.1353 237.428 44.0217 237.024 44.0217C236.605 44.0217 236.261 44.1416 235.989 44.3813C235.725 44.6148 235.542 44.9808 235.439 45.4793L234.898 48.101H233.69L234.715 43.0468H235.864L235.584 44.4381L235.381 44.0311C235.619 43.6715 235.915 43.4096 236.269 43.2456C236.631 43.0752 237.024 42.99 237.448 42.99C237.783 42.99 238.08 43.0468 238.338 43.1604C238.596 43.2676 238.801 43.4349 238.956 43.662C239.117 43.8829 239.21 44.1573 239.236 44.4854L238.656 44.3624C238.92 43.9081 239.258 43.5674 239.671 43.3402C240.089 43.1067 240.562 42.99 241.092 42.99ZM246.104 48.1673C245.653 48.1673 245.231 48.1136 244.838 48.0063C244.445 47.8991 244.142 47.7697 243.93 47.6183L244.431 46.7097C244.645 46.8548 244.908 46.9747 245.224 47.0693C245.547 47.1577 245.881 47.2018 246.229 47.2018C246.628 47.2018 246.921 47.1482 247.109 47.0409C247.302 46.9337 247.398 46.7854 247.398 46.5961C247.398 46.4573 247.33 46.3532 247.195 46.2838C247.06 46.2143 246.885 46.1576 246.674 46.1134C246.466 46.0692 246.241 46.0219 245.997 45.9714C245.758 45.9209 245.532 45.8515 245.321 45.7632C245.114 45.6749 244.945 45.5455 244.808 45.3751C244.673 45.2048 244.606 44.9776 244.606 44.6937C244.606 44.334 244.709 44.028 244.914 43.7756C245.122 43.5232 245.408 43.3307 245.774 43.1982C246.148 43.0594 246.577 42.99 247.06 42.99C247.409 42.99 247.749 43.0279 248.085 43.1036C248.419 43.1793 248.697 43.2866 248.914 43.4254L248.471 44.334C248.238 44.1889 247.988 44.0879 247.717 44.0311C247.453 43.9743 247.195 43.946 246.944 43.946C246.551 43.946 246.257 44.0059 246.064 44.1258C245.879 44.2394 245.784 44.3845 245.784 44.5612C245.784 44.7 245.853 44.8072 245.987 44.883C246.122 44.9587 246.293 45.0218 246.499 45.0723C246.712 45.1164 246.938 45.1638 247.175 45.2142C247.421 45.2584 247.646 45.3247 247.851 45.413C248.065 45.5013 248.238 45.6307 248.375 45.8011C248.51 45.9651 248.576 46.186 248.576 46.4636C248.576 46.8296 248.471 47.1419 248.258 47.4006C248.053 47.653 247.763 47.8454 247.388 47.978C247.014 48.1042 246.587 48.1673 246.104 48.1673Z" fill="#071C2C"/>
</g>
<defs>
<clipPath id="clip0_2530_895">
<rect width="249.6" height="48" fill="white" transform="translate(0 0.241699)"/>
</clipPath>
<clipPath id="clip1_2530_895">
<rect x="1.19922" y="0.241699" width="48" height="48" rx="9.6" fill="white"/>
</clipPath>
</defs>
</svg>
