<svg width="235" height="224" viewBox="0 0 235 224" fill="none" xmlns="http://www.w3.org/2000/svg">
<g id="freepik--Envelope--inject-184">
<path id="Vector" d="M80.9469 219.065L227.023 125.4L172.857 42.3997L26.7804 136.065L80.9469 219.065Z" fill="#84E1BC"/>
<path id="Vector_2" opacity="0.1" d="M80.9469 219.065L227.023 125.4L172.857 42.3997L26.7804 136.065L80.9469 219.065Z" fill="black"/>
<path id="Vector_3" opacity="0.1" d="M129.369 134.503L26.7828 136.063L172.855 42.396L129.369 134.503Z" fill="#263238"/>
<path id="Vector_4" d="M64.8349 55.4683L26.7788 136.063L172.851 42.3958L83.0907 43.7656C79.2745 43.823 75.519 44.959 72.2789 47.036C69.0389 49.113 66.4532 52.042 64.8349 55.4683Z" fill="#84E1BC"/>
<path id="Vector_5" opacity="0.2" d="M167.449 45.8783L82.1617 47.1753C79.2834 47.2176 76.4507 48.0739 74.0068 49.6403C71.5629 51.2066 69.6128 53.4159 68.3927 56.0003L32.217 132.582L167.449 45.8783Z" fill="#263238"/>
<path id="Vector_6" d="M138.525 59.492L162.042 54.0464L165.116 58.7522L129.352 134.505L44.9843 135.789L38.8376 126.378L138.525 59.492Z" fill="white"/>
<path id="Vector_7" d="M138.523 59.49L147.849 67.8768L162.041 54.0445" fill="#E0E0E0"/>
<path id="Vector_8" d="M138.523 59.49L144.996 67.0378L162.041 54.0445" fill="#F0F0F0"/>
<path id="Vector_9" d="M136.759 118.787L227.015 125.402L80.9395 219.063L111.85 134.754C113.663 129.814 117.105 125.554 121.622 122.658C126.138 119.763 131.469 118.4 136.759 118.787Z" fill="#84E1BC"/>
</g>
</svg>
