<svg width="242" height="64" viewBox="0 0 242 64" fill="none" xmlns="http://www.w3.org/2000/svg">
<g id="indigo-vector-logo-2022 1">
<path id="Combined-Shape" d="M223.843 26.5625C223.843 27.5983 223.029 28.4122 221.993 28.4122C220.994 28.4122 220.143 27.5983 220.143 26.5625C220.143 25.5267 220.957 24.7128 221.993 24.7128C223.029 24.7128 223.843 25.5267 223.843 26.5625ZM218.331 21.0134C218.331 22.0492 217.517 22.8631 216.481 22.8631C215.445 22.8631 214.631 22.0492 214.631 21.0134C214.631 19.9775 215.445 19.1637 216.481 19.1637C217.517 19.1637 218.331 20.0145 218.331 21.0134ZM223.843 21.0134C223.843 22.0492 223.029 22.8631 221.993 22.8631C220.994 22.8631 220.143 22.0492 220.143 21.0134C220.143 19.9775 220.957 19.1637 221.993 19.1637C223.029 19.1637 223.843 20.0145 223.843 21.0134ZM212.781 21.0134C212.781 22.0492 211.968 22.8631 210.932 22.8631C209.933 22.8631 209.082 22.0492 209.082 21.0134C209.082 19.9775 209.896 19.1637 210.932 19.1637C211.968 19.1637 212.781 20.0145 212.781 21.0134ZM226.987 15.0943C227.69 15.7972 227.69 16.981 226.987 17.7209C226.284 18.4238 225.1 18.4238 224.398 17.7209C223.695 17.018 223.695 15.8342 224.398 15.0943C225.1 14.3914 226.247 14.3914 226.987 15.0943ZM231.574 11.4319C232.277 12.1348 232.277 13.3186 231.574 14.0585C230.872 14.7613 229.688 14.7613 228.985 14.0585C228.282 13.3556 228.282 12.1718 228.985 11.4319C229.688 10.692 230.872 10.692 231.574 11.4319ZM206.344 21.0134C206.344 22.0492 205.531 22.8631 204.495 22.8631C203.496 22.8631 202.645 22.0492 202.645 21.0134C202.645 19.9775 203.459 19.1637 204.495 19.1637C205.531 19.1637 206.344 20.0145 206.344 21.0134ZM200.832 21.0134C200.832 22.0492 200.018 22.8631 198.983 22.8631C197.947 22.8631 197.133 22.0492 197.133 21.0134C197.133 19.9775 197.947 19.1637 198.983 19.1637C200.018 19.1637 200.832 20.0145 200.832 21.0134ZM221.993 30.2619C222.992 30.2619 223.843 31.0758 223.843 32.1116C223.843 33.1475 223.029 33.9613 221.993 33.9613C220.994 33.9613 220.143 33.1475 220.143 32.1116C220.143 31.0758 220.994 30.2619 221.993 30.2619ZM201.757 48.6851C201.757 49.7209 200.943 50.5348 199.907 50.5348C198.909 50.5348 198.058 49.7209 198.058 48.6851C198.058 47.6492 198.872 46.8353 199.907 46.8353C200.943 46.8723 201.757 47.6862 201.757 48.6851ZM196.245 43.1729C196.245 44.2088 195.431 45.0226 194.395 45.0226C193.396 45.0226 192.546 44.2088 192.546 43.1729C192.546 42.1371 193.359 41.3232 194.395 41.3232C195.431 41.3232 196.245 42.1371 196.245 43.1729ZM201.757 43.1729C201.757 44.2088 200.943 45.0226 199.907 45.0226C198.909 45.0226 198.058 44.2088 198.058 43.1729C198.058 42.1371 198.872 41.3232 199.907 41.3232C200.943 41.3232 201.757 42.1371 201.757 43.1729ZM190.733 43.1729C190.733 44.2088 189.919 45.0226 188.883 45.0226C187.884 45.0226 187.033 44.2088 187.033 43.1729C187.033 42.1371 187.847 41.3232 188.883 41.3232C189.882 41.3232 190.733 42.1371 190.733 43.1729ZM199.907 52.3845C200.906 52.3845 201.757 53.1983 201.757 54.2342C201.757 55.27 200.943 56.0839 199.907 56.0839C198.909 56.0839 198.058 55.27 198.058 54.2342C198.095 53.2353 198.909 52.3845 199.907 52.3845ZM221.993 35.7741C222.992 35.7741 223.843 36.5879 223.843 37.6238C223.843 38.6596 223.029 39.4735 221.993 39.4735C220.994 39.4735 220.143 38.6596 220.143 37.6238C220.143 36.6249 220.994 35.7741 221.993 35.7741ZM221.993 42.2481C222.992 42.2481 223.843 43.0619 223.843 44.0978C223.843 45.1336 223.029 45.9475 221.993 45.9475C220.994 45.9475 220.143 45.1336 220.143 44.0978C220.143 43.0619 220.994 42.2481 221.993 42.2481ZM210.044 34.8492C210.044 35.8851 209.23 36.6989 208.194 36.6989C207.195 36.6989 206.344 35.8851 206.344 34.8492C206.344 33.8134 207.158 32.9995 208.194 32.9995C209.23 33.0365 210.044 33.8504 210.044 34.8492ZM213.188 28.9301C213.891 29.633 213.891 30.8168 213.188 31.5567C212.485 32.2596 211.302 32.2596 210.599 31.5567C209.896 30.8538 209.896 29.67 210.599 28.9301C211.302 28.2272 212.448 28.2272 213.188 28.9301ZM217.776 25.2677C218.479 25.9706 218.479 27.1544 217.776 27.8943C217.073 28.5972 215.889 28.5972 215.186 27.8943C214.483 27.1914 214.483 26.0076 215.186 25.2677C215.889 24.5278 217.073 24.5278 217.776 25.2677ZM205.826 37.2538C206.529 37.9567 206.529 39.1405 205.826 39.8804C205.124 40.5833 203.94 40.5833 203.237 39.8804C202.534 39.1775 202.534 37.9937 203.237 37.2538C203.94 36.514 205.087 36.514 205.826 37.2538ZM133.059 50.6087C128.768 54.2342 123.736 56.0839 117.965 56.0839C111.75 56.0839 106.386 53.9012 101.873 49.5729C97.3964 45.1706 95.1398 39.8434 95.1398 33.5544C95.1398 27.2654 97.3964 21.9382 101.873 17.5359C106.386 13.0966 111.75 10.877 117.965 10.877C121.628 10.877 124.846 11.4689 127.658 12.6897C130.432 13.8735 133.244 15.8712 136.055 18.6827L136.277 18.9047L131.949 23.603L131.69 23.381C128.916 21.0874 126.807 19.5336 125.29 18.7197C123.07 17.5359 120.629 16.981 117.965 16.981C113.341 16.981 109.531 18.6087 106.46 21.8272C103.389 25.0457 101.836 28.9671 101.836 33.5174C101.836 38.0307 103.389 41.9151 106.46 45.1706C109.531 48.3891 113.378 50.0168 117.965 50.0168C122.22 50.0168 125.845 48.796 128.768 46.3174C131.838 43.7648 133.392 40.5093 133.466 36.514H118.409V30.4469H140.236V34.4423C140.273 41.1752 137.868 46.5394 133.059 50.6087ZM170.608 51.5336C167.537 54.4931 163.838 55.9729 159.547 55.9729C155.292 55.9729 151.593 54.4931 148.522 51.5336C145.452 48.5741 143.898 44.8007 143.898 40.2874C143.898 35.7741 145.415 32.0377 148.448 29.1151C151.519 26.1186 155.218 24.6388 159.51 24.6388C163.764 24.6388 167.463 26.1186 170.534 29.1151C173.679 32.0746 175.232 35.8111 175.232 40.2874C175.232 44.8376 173.716 48.5741 170.608 51.5336ZM166.243 33.1475C164.504 31.3348 162.284 30.4099 159.547 30.4099C156.772 30.4099 154.553 31.3348 152.777 33.1475C151.075 34.9232 150.224 37.2908 150.224 40.2874C150.224 43.2099 151.112 45.5775 152.851 47.4272C154.589 49.24 156.809 50.1648 159.547 50.1648C162.284 50.1648 164.504 49.24 166.243 47.4272C167.981 45.6145 168.869 43.2469 168.869 40.2874C168.869 37.3648 167.981 34.9972 166.243 33.1475ZM90.5525 21.4573C89.9236 22.1602 89.0357 22.4931 87.8889 22.4931C86.8161 22.4931 85.9282 22.1602 85.2253 21.4573C84.5964 20.7174 84.2635 19.8666 84.2635 18.8677C84.2635 17.8689 84.5964 17.018 85.2253 16.3521C85.8912 15.6492 86.7791 15.3163 87.8889 15.3163C88.9618 15.3163 89.8496 15.6862 90.4785 16.4261C91.1444 17.092 91.5144 17.9429 91.5144 18.8677C91.5144 19.9035 91.2184 20.7914 90.5525 21.4573ZM84.8184 55.344V25.2307H90.9594V55.344H84.8184ZM76.3097 51.3856C73.4612 54.4191 69.7987 55.9359 65.3594 55.9359C60.6612 55.9359 56.8138 54.3082 53.8912 51.0527C51.1537 47.9822 49.7849 44.1348 49.7849 39.5105C49.7849 35.3301 51.1907 31.8157 54.0392 28.9301C56.9248 26.0076 60.3282 24.5648 64.3236 24.5648C67.4681 24.5648 70.3167 25.2677 72.8693 26.6365L73.0542 26.7475V33.2955L72.5363 32.9255C71.5375 32.2596 70.3167 31.6677 68.9479 31.1498C67.6161 30.6319 66.3953 30.3729 65.2854 30.3729C62.4369 30.3729 60.1802 31.2608 58.4785 33.0365C56.7768 34.8122 55.9259 37.1798 55.9259 40.1764C55.9259 43.0989 56.8138 45.5035 58.5525 47.3533C60.3282 49.166 62.6219 50.0908 65.4334 50.0908C68.06 50.0908 70.2057 49.092 71.9444 47.1313C73.6831 45.1706 74.571 42.248 74.571 38.4007V11.5798H80.638V39.3625C80.638 44.3197 79.1953 48.3151 76.3097 51.3856ZM39.9814 55.344V37.8088C39.9814 35.6631 39.3155 33.9244 37.9837 32.5556C36.6889 31.1498 35.0982 30.4469 33.1375 30.4469C31.2878 30.4469 29.697 31.1498 28.2912 32.5556C26.9594 33.9244 26.2935 35.6631 26.2935 37.8088V55.344H20.2265V37.8088C20.2265 33.9244 21.4473 30.7429 23.8519 28.3012C26.2935 25.8226 29.4011 24.6018 33.1375 24.6018C36.8739 24.6018 39.9444 25.8226 42.423 28.3012C44.9016 30.7798 46.1224 33.9614 46.1224 37.8088V55.344H39.9814ZM10.1641 55.344V11.6168H16.6011V55.344H10.1641Z" fill="white"/>
</g>
</svg>
