<svg width="16" height="16" viewBox="0 0 16 16" fill="none" xmlns="http://www.w3.org/2000/svg">
<g id="mingcute:time-fill" clip-path="url(#clip0_3392_399)">
<g id="Group">
<path id="Vector" d="M8.0026 1.33334C11.6846 1.33334 14.6693 4.31801 14.6693 8.00001C14.6693 11.682 11.6846 14.6667 8.0026 14.6667C4.3206 14.6667 1.33594 11.682 1.33594 8.00001C1.33594 4.31801 4.3206 1.33334 8.0026 1.33334ZM8.0026 4.00001C7.82579 4.00001 7.65622 4.07025 7.5312 4.19527C7.40618 4.3203 7.33594 4.48987 7.33594 4.66668V8.00001C7.33597 8.17681 7.40624 8.34635 7.53127 8.47134L9.53127 10.4713C9.65701 10.5928 9.82541 10.66 10.0002 10.6585C10.175 10.6569 10.3422 10.5868 10.4658 10.4632C10.5894 10.3396 10.6595 10.1724 10.6611 9.99761C10.6626 9.82281 10.5954 9.65441 10.4739 9.52868L8.66927 7.72401V4.66668C8.66927 4.48987 8.59903 4.3203 8.47401 4.19527C8.34898 4.07025 8.17941 4.00001 8.0026 4.00001Z" fill="#071C2C"/>
</g>
</g>
<defs>
<clipPath id="clip0_3392_399">
<rect width="16" height="16" fill="white"/>
</clipPath>
</defs>
</svg>
