<svg width="208" height="40" viewBox="0 0 208 40" fill="none" xmlns="http://www.w3.org/2000/svg">
<g clip-path="url(#clip0_1369_557)">
<rect x="1" width="40" height="40" rx="8" fill="#E73C34"/>
<path d="M40.9959 23.9101L40.994 33.9885C40.994 35.8917 41.1795 36.9957 39.4836 38.7122C37.8197 40.3964 35.9466 40.2183 34.3014 40.2433C35.1852 40.0241 35.9069 39.3925 36.1192 38.5447C36.1255 38.5173 36.1318 38.4899 36.1381 38.4625C36.1381 38.4579 36.1412 38.4518 36.1428 38.4473C36.1538 38.4046 36.1632 38.359 36.1727 38.3133C36.1852 38.254 36.1994 38.1961 36.2104 38.1352C36.223 38.0728 36.234 38.0104 36.245 37.9465C36.256 37.8856 36.267 37.8263 36.2764 37.7654C36.2859 37.7014 36.2937 37.6375 36.3032 37.5736C36.3126 37.5112 36.3189 37.4503 36.3268 37.3864C36.3331 37.3225 36.3393 37.257 36.3441 37.1916C36.3488 37.1276 36.3566 37.0652 36.3598 36.9998C36.3645 36.9328 36.3661 36.8674 36.3692 36.7989C36.3708 36.7334 36.3739 36.6695 36.3755 36.604C36.3755 36.5371 36.3755 36.4686 36.3755 36.4001C36.3755 36.3331 36.3755 36.2677 36.3755 36.1992C36.3739 36.1307 36.3692 36.0607 36.3661 35.9922C36.3629 35.9237 36.3598 35.8552 36.3535 35.7852C36.3488 35.7152 36.3409 35.6451 36.333 35.5736C36.3268 35.5051 36.3205 35.4351 36.3126 35.3651C36.3032 35.2936 36.2922 35.222 36.2827 35.149C36.2733 35.0774 36.2623 35.0074 36.2513 34.9359C36.2387 34.8628 36.2245 34.7882 36.2104 34.7152C36.1978 34.6436 36.1837 34.5721 36.1695 34.499C36.1538 34.4245 36.1349 34.3484 36.1161 34.2738C36.0988 34.2007 36.0815 34.1277 36.0626 34.0546C36.0421 33.9785 36.0201 33.9009 35.9981 33.8248C35.9777 33.7502 35.9572 33.6771 35.9336 33.601C35.9101 33.5249 35.8818 33.4473 35.8566 33.3697C35.8299 33.2936 35.8063 33.2175 35.7795 33.1414C35.7512 33.0622 35.7198 32.9815 35.6883 32.9024C35.6585 32.8263 35.6302 32.7487 35.6003 32.6726C35.5673 32.5919 35.5311 32.5097 35.4965 32.429C35.4619 32.3499 35.4305 32.2723 35.3943 32.1946C35.3581 32.1124 35.3172 32.0318 35.2779 31.9496C35.2402 31.8704 35.2025 31.7898 35.1616 31.7091C35.1191 31.6269 35.0735 31.5432 35.0295 31.4595C34.987 31.3788 34.9462 31.2981 34.9006 31.2175C34.8549 31.1322 34.8031 31.047 34.7543 30.9633C34.7071 30.8811 34.6615 30.8004 34.6128 30.7167C34.5609 30.6315 34.5043 30.5447 34.4493 30.458C34.3974 30.3758 34.3471 30.2921 34.292 30.2099C34.2338 30.1216 34.1709 30.0318 34.1112 29.9435C34.0562 29.8598 34.0011 29.7776 33.9414 29.6939C33.8785 29.6041 33.8093 29.5128 33.7448 29.423C33.6835 29.3393 33.6237 29.2555 33.5593 29.1703C33.4901 29.079 33.4177 28.9861 33.3454 28.8948C33.2794 28.8096 33.2149 28.7259 33.1457 28.6406C33.0702 28.5463 32.9885 28.4519 32.9114 28.3575C32.8406 28.2723 32.7715 28.1886 32.6976 28.1033C32.6158 28.0059 32.5277 27.91 32.4412 27.8126C32.3673 27.7274 32.295 27.6437 32.2164 27.5584C32.1268 27.461 32.0324 27.3606 31.9396 27.2616C31.8594 27.1764 31.7824 27.0912 31.7006 27.0059C31.6047 26.907 31.5041 26.8066 31.4034 26.7061C31.3185 26.6193 31.2368 26.5341 31.1471 26.4458C31.0449 26.3438 30.9348 26.2419 30.8279 26.1399C30.7383 26.0531 30.6502 25.9679 30.5575 25.8796C30.4458 25.7746 30.3263 25.6681 30.2099 25.5615C30.1172 25.4763 30.026 25.391 29.9316 25.3058C29.8074 25.1947 29.6769 25.0836 29.5479 24.9709C29.4536 24.8888 29.3624 24.8081 29.2665 24.7244C29.1312 24.6102 28.9913 24.4945 28.8513 24.3804C28.7539 24.2982 28.6595 24.2191 28.5604 24.1369C28.3953 24.0014 28.2224 23.8659 28.0494 23.7305C27.9708 23.6681 27.8969 23.6072 27.8167 23.5448C27.5635 23.3469 27.3009 23.1475 27.0336 22.9466C26.4958 22.5433 25.6876 22.7213 25.4045 23.3043L21.6495 31.0942L19.1446 28.8415L20.0299 17.8949C20.0299 17.8949 13.7669 12.5981 15.2182 11.2633C16.6696 9.92692 23.0443 14.1126 23.0443 14.1126L34.7748 11.0289L37.6743 12.8949L29.8263 18.1232C29.5071 18.3363 29.5873 18.7899 29.9615 18.9025C34.0876 20.1323 37.6979 21.8386 40.8082 23.8233C40.8664 23.8598 40.9277 23.8888 40.9891 23.9101H40.9959Z" fill="white"/>
</g>
<path d="M67.543 9.16153C67.543 9.3017 67.4805 9.37187 67.3552 9.37187C67.1584 9.37187 66.9794 9.03008 66.8184 8.34651C66.4963 6.99696 66.0489 6.07677 65.4764 5.58595C64.9039 5.09513 63.9913 4.8498 62.7388 4.8498C62.2556 4.8498 61.8351 4.86738 61.4773 4.90238L61.5041 20.8874C61.5221 21.3256 61.6472 21.6059 61.8799 21.7287C62.1126 21.8514 62.7388 21.9566 63.7587 22.0442C63.9554 22.0617 64.0539 22.1406 64.0539 22.2808C64.0539 22.4561 63.9108 22.5437 63.6245 22.5437C63.5708 22.5437 63.4366 22.535 63.2219 22.5174C62.9535 22.4998 62.7299 22.4911 62.5509 22.4911L59.7864 22.4122L55.2237 22.4911C54.9733 22.4911 54.848 22.4209 54.848 22.2808C54.848 22.1756 54.8837 22.1143 54.9553 22.0967C55.0269 22.0792 55.3222 22.0617 55.841 22.0442C56.8252 22.0092 57.3529 21.7813 57.4245 21.3606C57.4603 21.1327 57.4782 19.3538 57.4782 16.0235V4.90238C57.2815 4.8848 57.0488 4.87609 56.7804 4.87609C55.349 4.87609 54.3023 5.139 53.6402 5.66482C52.996 6.17306 52.5755 7.08454 52.3787 8.39909C52.2534 9.17024 52.0924 9.5559 51.8956 9.5559C51.7346 9.5559 51.6541 9.45074 51.6541 9.24041C51.6541 9.10025 51.6898 8.61813 51.7614 7.7944C51.9045 6.07677 51.9941 4.90238 52.0298 4.2714H52.4324L54.3917 4.2451C54.4454 4.2451 55.0627 4.26269 56.2436 4.29769C57.4425 4.33269 58.9633 4.35027 60.8063 4.35027C61.8262 4.35027 62.7388 4.34156 63.5439 4.32398C64.3491 4.3064 65.0827 4.29769 65.7448 4.29769C66.3352 4.29769 66.7826 4.2801 67.0868 4.2451C67.1404 5.38433 67.2746 6.83921 67.4893 8.60942C67.5251 8.90733 67.543 9.09137 67.543 9.16153ZM83.0277 22.386C83.0277 22.4911 82.9472 22.5437 82.7862 22.5437C82.8041 22.5437 82.6251 22.5437 82.2494 22.5437C81.8736 22.5261 81.5604 22.5174 81.31 22.5174H80.639C79.1003 22.5174 78.1518 22.4998 77.794 22.4648H77.3646L76.7205 22.4911C76.4878 22.5087 76.3715 22.4472 76.3715 22.3071C76.3715 22.2019 76.4163 22.1493 76.5057 22.1493L77.123 22.1756C77.5167 22.1932 77.7404 22.088 77.794 21.8601C77.8298 21.72 77.8477 20.8435 77.8477 19.231V15.3136C77.8477 13.6836 77.7672 12.7195 77.6062 12.4216C77.3735 11.966 76.9263 11.7381 76.2642 11.7381C75.5664 11.7381 75.0296 12.0448 74.6538 12.6583C74.4748 12.9562 74.3854 13.596 74.3854 14.5775V18.7052C74.3854 19.9848 74.3943 20.6857 74.4123 20.8085V21.124L74.3854 21.755C74.3675 22.0179 74.7432 22.1493 75.5127 22.1493C75.6737 22.1493 75.7542 22.2019 75.7542 22.3071C75.7542 22.4298 75.638 22.4911 75.4053 22.4911C75.4053 22.4911 75.3337 22.4911 75.1906 22.4911C75.0475 22.4735 74.8328 22.4648 74.5464 22.4648H73.3655L71.8625 22.4911L70.279 22.5437H69.4738C69.2054 22.5437 69.0712 22.4911 69.0712 22.386C69.0712 22.3334 69.0891 22.2984 69.1249 22.2808C69.1606 22.2632 69.2411 22.2545 69.3664 22.2545C70.0463 22.2545 70.4489 22.2282 70.5742 22.1756C70.6995 22.123 70.78 21.9214 70.8158 21.5709C70.8337 21.3606 70.8426 20.309 70.8426 18.416V8.76717C70.8426 6.87421 70.7978 5.78757 70.7084 5.50708C70.6368 5.20917 70.261 5.06013 69.5811 5.06013C69.0623 5.06013 68.8028 5.00755 68.8028 4.90238C68.8028 4.79722 69.1069 4.72705 69.7153 4.69205C71.0931 4.60447 72.3904 4.37656 73.6071 4.00848C73.8397 3.93832 74.0097 3.90332 74.117 3.90332C74.2601 3.90332 74.3317 4.39414 74.3317 5.37562V5.90144C74.3317 6.25193 74.3317 6.71646 74.3317 7.29487C74.3138 7.85569 74.3049 8.24135 74.3049 8.45168V12.632C74.8237 11.9134 75.3248 11.4226 75.8079 11.1597C76.309 10.8967 76.98 10.7653 77.8209 10.7653C79.5923 10.7653 80.7016 11.4664 81.149 12.8686C81.31 13.3242 81.3905 14.0604 81.3905 15.077V21.2029C81.3905 21.6585 81.4621 21.939 81.6052 22.0442C81.7663 22.1493 82.1509 22.2019 82.7593 22.2019C82.9383 22.2019 83.0277 22.2632 83.0277 22.386ZM95.9142 19.2573C95.9142 19.643 95.6817 20.1512 95.2164 20.7822C94.2144 22.1317 92.9082 22.8066 91.2978 22.8066C89.4907 22.8066 88.0056 22.2458 86.8425 21.124C85.6795 20.0022 85.0979 18.565 85.0979 16.8122C85.0979 15.0946 85.6615 13.666 86.7888 12.5268C87.916 11.37 89.3207 10.7916 91.0026 10.7916C92.1478 10.7916 93.1229 11.0369 93.9281 11.5277C94.8228 12.0711 95.4043 12.851 95.6727 13.8676C95.7443 14.1831 95.798 14.5599 95.8337 14.9982C95.4222 15.0332 93.767 15.0594 90.8684 15.077C90.4212 15.077 89.8575 15.0946 89.1775 15.1296C89.1238 15.7606 89.097 16.2951 89.097 16.7334C89.097 18.7841 89.5355 20.2388 90.4121 21.0977C90.9311 21.6059 91.5662 21.8601 92.3177 21.8601C92.9441 21.8601 93.5434 21.6498 94.116 21.2291C94.7064 20.8085 95.1538 20.2651 95.4579 19.5991C95.6012 19.266 95.7174 19.0996 95.8068 19.0996C95.8785 19.0996 95.9142 19.1521 95.9142 19.2573ZM92.5324 14.6827C92.5504 13.3331 92.4519 12.3953 92.2372 11.8695C92.0225 11.3437 91.6467 11.0808 91.1099 11.0808C90.0186 11.0808 89.3922 12.2815 89.2312 14.6827C89.6069 14.6651 90.3943 14.6564 91.593 14.6564C91.951 14.6564 92.264 14.6651 92.5324 14.6827ZM115.663 17.2855C115.663 18.8805 115.081 20.2038 113.918 21.2554C112.773 22.2895 111.306 22.8066 109.516 22.8066C108.425 22.8066 106.922 22.4472 105.007 21.7287C104.864 21.6761 104.739 21.6498 104.632 21.6498C104.327 21.6498 104.095 21.9653 103.934 22.5963C103.88 22.789 103.809 22.8855 103.719 22.8855C103.576 22.8855 103.504 22.7627 103.504 22.5174C103.504 22.2895 103.549 21.8864 103.639 21.308C103.71 20.8348 103.746 20.2827 103.746 19.6517C103.746 19.1434 103.737 18.7402 103.719 18.4423C103.683 17.8463 103.665 17.4958 103.665 17.3906C103.665 17.1102 103.755 16.97 103.934 16.97C104.113 16.97 104.274 17.3468 104.417 18.1005C104.667 19.3975 105.231 20.4054 106.108 21.124C107.056 21.8951 108.076 22.2808 109.168 22.2808C110.134 22.2808 110.948 21.9829 111.61 21.3869C112.272 20.7909 112.603 20.0636 112.603 19.2047C112.603 18.4686 112.388 17.8815 111.959 17.4432C111.637 17.1277 110.599 16.5055 108.845 15.5766C106.895 14.5599 105.571 13.5434 104.873 12.5268C104.229 11.5979 103.907 10.4937 103.907 9.21412C103.907 7.70682 104.453 6.46226 105.544 5.48078C106.636 4.48172 108.013 3.98219 109.677 3.98219C110.572 3.98219 111.529 4.19252 112.549 4.61318C112.889 4.75334 113.131 4.82351 113.274 4.82351C113.542 4.82351 113.721 4.5956 113.811 4.13994C113.847 3.98219 113.927 3.90332 114.052 3.90332C114.231 3.90332 114.321 4.01719 114.321 4.2451C114.321 4.33269 114.303 4.57818 114.267 4.98125C114.231 5.38433 114.213 5.7174 114.213 5.98032C114.213 6.89179 114.249 7.66294 114.321 8.29393C114.339 8.34651 114.348 8.41668 114.348 8.50426C114.348 8.662 114.276 8.74088 114.133 8.74088C113.972 8.74088 113.811 8.46039 113.65 7.89956C113.489 7.33874 113.202 6.78663 112.791 6.24323C112.397 5.6824 111.995 5.27916 111.583 5.03384C111.046 4.71834 110.42 4.5606 109.704 4.5606C108.702 4.5606 107.906 4.79722 107.316 5.27046C106.725 5.7437 106.43 6.39226 106.43 7.216C106.43 7.93456 106.707 8.57442 107.262 9.13525C107.817 9.67865 108.881 10.3796 110.456 11.2385C112.388 12.2902 113.668 13.1315 114.294 13.7625C115.206 14.6914 115.663 15.8658 115.663 17.2855ZM132.574 22.3071C132.574 22.4298 132.243 22.4911 131.581 22.4911H131.125C130.785 22.4911 130.32 22.4824 129.729 22.4648C129.156 22.4472 128.602 22.4385 128.065 22.4385C127.403 22.4385 126.902 22.4472 126.562 22.4648C126.222 22.4824 125.98 22.4911 125.837 22.4911C125.587 22.4911 125.462 22.4298 125.462 22.3071C125.462 22.1843 125.703 22.1143 126.186 22.0967C126.49 22.0792 126.643 21.9829 126.643 21.8075C126.643 21.6322 126.267 20.9486 125.515 19.7568C125.301 19.4413 124.987 18.9505 124.576 18.2845C124.29 17.7937 123.878 17.154 123.341 16.3653V20.2564C123.341 21.1853 123.368 21.7287 123.422 21.8864C123.493 22.0442 123.699 22.123 124.039 22.123C124.146 22.123 124.236 22.1143 124.308 22.0967H124.522C124.701 22.0967 124.791 22.1669 124.791 22.3071C124.791 22.4472 124.692 22.5174 124.495 22.5174H124.388L123.69 22.4911H122.805L121.14 22.4648H118.537C118.447 22.4824 118.349 22.4911 118.242 22.4911C118.045 22.4911 117.947 22.4298 117.947 22.3071C117.947 22.1843 118.179 22.1143 118.644 22.0967C119.235 22.0792 119.566 22.0266 119.637 21.939C119.727 21.8514 119.772 21.4132 119.772 20.6244L119.745 6.76905C119.745 6.08548 119.664 5.66482 119.503 5.50708C119.36 5.34933 118.957 5.27916 118.295 5.29675C117.955 5.29675 117.786 5.23546 117.786 5.11271C117.786 5.00755 117.821 4.94625 117.893 4.92867C117.964 4.91109 118.224 4.89367 118.671 4.87609C120.478 4.80593 121.749 4.57818 122.482 4.19252C122.733 4.05236 122.948 3.97348 123.127 3.9559C123.198 4.20123 123.243 4.67447 123.261 5.37562L123.314 8.18877C123.332 9.13524 123.341 10.4585 123.341 12.1587V15.9972C123.627 15.7693 124.093 15.3049 124.737 14.6038C125.005 14.3059 125.408 13.8589 125.945 13.2629C126.804 12.3165 127.233 11.8082 127.233 11.7381C127.233 11.6505 127.179 11.5979 127.072 11.5803C126.965 11.5627 126.607 11.5453 125.998 11.5277C125.587 11.5277 125.381 11.4489 125.381 11.2911C125.381 11.1509 125.488 11.0808 125.703 11.0808L127.743 11.1334L129.836 11.0808C130.159 11.0808 130.32 11.1334 130.32 11.2385C130.32 11.3437 129.953 11.4139 129.219 11.4489C128.736 11.4664 128.342 11.6242 128.038 11.9221C127.483 12.4479 126.777 13.1841 125.918 14.1305L129.004 18.7052C129.165 18.9681 129.425 19.3625 129.783 19.8883C129.836 19.9585 129.971 20.1512 130.185 20.4667L130.642 21.0977L130.856 21.4132C131.053 21.7111 131.214 21.904 131.339 21.9916C131.465 22.0617 131.697 22.0967 132.037 22.0967C132.395 22.0967 132.574 22.1669 132.574 22.3071ZM144.883 11.2648C144.883 11.3876 144.847 11.4664 144.775 11.5014C144.704 11.519 144.453 11.5277 144.024 11.5277C143.541 11.5277 143.254 11.554 143.165 11.6066L143.004 11.8958L142.682 12.816C142.539 13.2367 142.217 14.0867 141.716 15.3662C141.68 15.4714 141.286 16.5493 140.535 18.6C138.763 23.4552 137.618 26.3909 137.099 27.4075C136.455 28.6695 135.632 29.3005 134.63 29.3005C134.057 29.3005 133.592 29.134 133.234 28.801C132.894 28.4679 132.724 28.0298 132.724 27.4864C132.724 26.6275 133.207 26.1982 134.174 26.1982C134.496 26.1982 134.755 26.3033 134.952 26.5136C135.041 26.6012 135.194 26.8467 135.408 27.2498C135.534 27.4251 135.704 27.5127 135.918 27.5127C136.276 27.5127 136.616 27.2148 136.938 26.6188C137.278 26.0404 137.734 24.9362 138.307 23.3061C138.164 23.0256 137.886 22.4035 137.475 21.4395C136.938 20.1073 136.222 18.3634 135.328 16.2075C135.113 15.6817 134.63 14.5336 133.878 12.7634C133.628 12.1674 133.413 11.8169 133.234 11.7118C133.055 11.589 132.644 11.519 132 11.5014C131.785 11.5014 131.678 11.4313 131.678 11.2911C131.678 11.1509 131.785 11.0808 132 11.0808H132.483C132.751 11.0808 133.154 11.0895 133.691 11.1071C134.227 11.1247 134.639 11.1334 134.925 11.1334L138.2 11.1071C138.307 11.0895 138.432 11.0808 138.575 11.0808C138.772 11.0808 138.871 11.1421 138.871 11.2648C138.871 11.4226 138.602 11.4927 138.065 11.4752C137.529 11.4576 137.26 11.5716 137.26 11.8169C137.26 11.9923 137.332 12.2639 137.475 12.632C137.672 13.1228 137.779 13.412 137.797 13.4996C138.674 15.8833 139.389 17.6974 139.944 18.9418C141.608 14.7878 142.44 12.4216 142.44 11.8432C142.44 11.6505 142.234 11.554 141.823 11.554C140.964 11.554 140.535 11.4752 140.535 11.3174C140.535 11.1597 140.642 11.0808 140.857 11.0808C141.036 11.0808 141.215 11.0895 141.394 11.1071C141.734 11.1421 142.199 11.1597 142.789 11.1597C142.861 11.1597 143.12 11.1509 143.568 11.1334C144.033 11.0984 144.337 11.0808 144.48 11.0808H144.641C144.802 11.0808 144.883 11.1421 144.883 11.2648ZM154.051 20.7822C154.051 20.9749 153.88 21.2291 153.541 21.5446C152.664 22.3684 151.456 22.7803 149.917 22.7803C148.504 22.7803 147.573 22.4385 147.126 21.755C146.947 21.4921 146.84 21.2467 146.804 21.0188C146.786 20.7909 146.777 20.2038 146.777 19.2573V17.9953C146.777 17.6623 146.777 17.3118 146.777 16.9437C146.759 16.5756 146.75 16.3916 146.75 16.3916V14.0254L146.723 12.1324C146.723 11.8169 146.679 11.6329 146.589 11.5803C146.5 11.5277 146.231 11.5014 145.784 11.5014C145.247 11.5014 144.979 11.4313 144.979 11.2911C144.979 11.1859 145.077 11.1158 145.274 11.0808C146.956 11.0282 148.405 10.1343 149.622 8.39909C149.783 8.15377 149.908 8.03102 149.998 8.03102C150.105 8.03102 150.159 8.15377 150.159 8.39909C150.141 9.90639 150.203 10.7303 150.347 10.8705C150.49 11.0106 150.928 11.0808 151.662 11.0808C152.413 11.0808 152.941 11.0458 153.245 10.9756C153.281 10.958 153.317 10.9493 153.353 10.9493C153.424 10.9493 153.46 11.0019 153.46 11.1071C153.46 11.3524 153.344 11.4752 153.111 11.4752C152.377 11.4927 151.563 11.5014 150.669 11.5014C150.597 11.5014 150.472 11.4927 150.293 11.4752V12.0273C150.293 16.7247 150.356 19.4763 150.481 20.2827C150.642 21.2993 151.143 21.8075 151.984 21.8075C152.36 21.8075 152.843 21.5446 153.433 21.0188C153.719 20.7735 153.898 20.6507 153.97 20.6507C154.024 20.6507 154.051 20.6946 154.051 20.7822ZM165.146 12.7108C165.146 13.2191 164.994 13.6397 164.69 13.9728C164.385 14.2883 163.992 14.446 163.509 14.446C162.543 14.446 162.06 14.0078 162.06 13.1315C162.06 12.8336 162.176 12.5355 162.409 12.2376C162.463 12.1674 162.489 12.1061 162.489 12.0536C162.489 11.8958 162.372 11.8169 162.14 11.8169C161.532 11.8169 161.067 12.2815 160.745 13.2104C160.565 13.7362 160.476 15.0244 160.476 17.0752V18.9944L160.503 21.308C160.503 21.7813 160.745 22.0355 161.228 22.0705C161.513 22.088 161.854 22.0967 162.248 22.0967C162.444 22.1143 162.543 22.1756 162.543 22.2808C162.543 22.4209 162.463 22.4911 162.301 22.4911H161.765C161.604 22.4735 160.825 22.4648 159.43 22.4648C159.5 22.4648 159.098 22.4735 158.222 22.4911L156.907 22.5174H155.887C155.707 22.535 155.501 22.5437 155.27 22.5437C155.072 22.5437 154.974 22.4824 154.974 22.3597C154.974 22.2369 155.098 22.1756 155.35 22.1756C156.083 22.158 156.521 22.088 156.665 21.9653C156.826 21.8251 156.907 21.4308 156.907 20.7822L156.88 13.6836C156.88 13.0876 156.789 12.6758 156.612 12.4479C156.45 12.22 156.075 12.0798 155.484 12.0273C155.018 11.9923 154.75 11.966 154.679 11.9484C154.625 11.9308 154.598 11.8695 154.598 11.7644C154.598 11.6592 154.67 11.6066 154.813 11.6066C154.974 11.6066 155.125 11.6153 155.27 11.6329H155.806C157.184 11.6329 158.668 11.3524 160.262 10.7916C160.351 11.1421 160.396 11.5453 160.396 12.001V13.1052C160.735 12.2463 161.102 11.6416 161.496 11.2911C161.907 10.9406 162.436 10.7653 163.08 10.7653C163.687 10.7653 164.18 10.9493 164.556 11.3174C164.949 11.6855 165.146 12.15 165.146 12.7108ZM179.113 21.0714C179.113 21.2116 178.97 21.4045 178.684 21.6498C177.915 22.3334 176.966 22.6751 175.839 22.6751C175.106 22.6751 174.569 22.5261 174.228 22.2282C173.906 21.9303 173.692 21.3956 173.584 20.6244C172.779 22.0617 171.679 22.7803 170.283 22.7803C169.515 22.7803 168.887 22.5437 168.404 22.0705C167.939 21.5972 167.706 20.9838 167.706 20.2301C167.706 18.0216 169.639 16.7158 173.504 16.3127V15.7606C173.504 14.0078 173.442 12.9299 173.316 12.5268L173.289 12.3953C173.039 11.519 172.403 11.0808 171.383 11.0808C170.793 11.0808 170.32 11.2472 169.961 11.5803C169.604 11.9134 169.424 12.2376 169.424 12.5531C169.424 12.7284 169.639 12.8336 170.068 12.8686C170.712 12.9212 171.034 13.3068 171.034 14.0254C171.034 14.411 170.9 14.7352 170.632 14.9982C170.382 15.2435 170.051 15.3662 169.639 15.3662C169.12 15.3662 168.691 15.2172 168.35 14.9193C168.028 14.6038 167.867 14.2094 167.867 13.7362C167.867 12.9825 168.253 12.2989 169.021 11.6855C169.791 11.0721 170.803 10.7653 172.054 10.7653C173.916 10.7653 175.213 11.0895 175.946 11.7381C176.536 12.2815 176.832 13.2279 176.832 14.5775V19.0733C176.832 19.9496 176.842 20.458 176.859 20.5982C176.949 21.3343 177.207 21.7024 177.637 21.7024C177.942 21.7024 178.318 21.4921 178.764 21.0714C178.855 20.9838 178.925 20.9399 178.979 20.9399C179.069 20.9399 179.113 20.9838 179.113 21.0714ZM173.504 17.9428V16.6545C171.769 16.9876 170.9 17.9515 170.9 19.5465C170.9 20.7735 171.33 21.3869 172.188 21.3869C172.672 21.3869 173.012 21.124 173.208 20.5982C173.406 20.0723 173.504 19.1871 173.504 17.9428ZM185.804 5.63853C185.804 6.12935 185.635 6.55001 185.295 6.9005C184.956 7.251 184.543 7.42632 184.06 7.42632C183.56 7.42632 183.139 7.25987 182.798 6.92679C182.46 6.59372 182.289 6.17306 182.289 5.66482C182.289 5.174 182.46 4.77093 182.798 4.45543C183.139 4.13994 183.577 3.98219 184.114 3.98219C184.597 3.98219 184.999 4.13994 185.321 4.45543C185.643 4.77093 185.804 5.16529 185.804 5.63853ZM187.737 22.3071C187.737 22.4298 187.656 22.4911 187.495 22.4911L183.926 22.4385L181.349 22.4911C181.242 22.4911 181.108 22.4998 180.947 22.5174C180.804 22.5174 180.723 22.5174 180.705 22.5174C180.49 22.5174 180.383 22.4472 180.383 22.3071C180.383 22.2019 180.589 22.1406 181 22.123C181.609 22.1055 181.966 22.0442 182.074 21.939C182.181 21.8163 182.235 21.4658 182.235 20.8874V13.3418C182.235 12.6758 182.173 12.2815 182.047 12.1587C181.94 12.0186 181.591 11.9484 181 11.9484C180.624 11.9484 180.401 11.9397 180.329 11.9221C180.276 11.9045 180.249 11.8432 180.249 11.7381C180.249 11.6153 180.383 11.554 180.651 11.554C182.621 11.5364 184.301 11.2385 185.697 10.6601C185.734 10.8705 185.778 11.4489 185.831 12.3953L185.858 15.7343V20.677C185.858 21.3956 185.922 21.8163 186.046 21.939C186.19 22.0617 186.655 22.123 187.442 22.123C187.64 22.123 187.737 22.1843 187.737 22.3071ZM196.73 22.2808C196.73 22.4209 196.389 22.4911 195.71 22.4911C195.549 22.4911 195.047 22.4735 194.207 22.4385C193.778 22.4209 193.356 22.4122 192.945 22.4122C192.551 22.4122 191.818 22.4298 190.745 22.4648L189.939 22.4911C189.545 22.5087 189.349 22.4472 189.349 22.3071C189.349 22.1669 189.554 22.1055 189.966 22.123C190.592 22.1406 190.949 22.0792 191.04 21.939C191.147 21.7988 191.201 21.273 191.201 20.3615V6.50614C191.201 5.91015 191.137 5.55966 191.013 5.45449C190.887 5.33175 190.52 5.27046 189.913 5.27046C189.465 5.27046 189.242 5.20916 189.242 5.08642C189.242 4.94625 189.473 4.86738 189.939 4.8498C191.942 4.77964 193.58 4.48172 194.851 3.9559C194.833 4.48172 194.824 7.55778 194.824 13.1841V19.7305C194.824 20.9224 194.851 21.6235 194.905 21.8338C194.975 22.0266 195.2 22.1143 195.576 22.0967L196.381 22.0705C196.612 22.0705 196.73 22.1406 196.73 22.2808ZM207.175 18.8367C207.175 20.011 206.81 20.9662 206.075 21.7024C205.342 22.4209 204.394 22.7803 203.23 22.7803C202.658 22.7803 201.979 22.6402 201.19 22.3597C200.546 22.1317 200.127 22.0179 199.929 22.0179C199.59 22.0179 199.365 22.1406 199.258 22.386C199.15 22.6313 199.07 22.754 199.016 22.754C198.909 22.754 198.855 22.6927 198.855 22.57C198.855 22.4648 198.874 22.2984 198.909 22.0705C198.963 21.7374 198.989 21.159 198.989 20.3352C198.989 20.3002 198.989 20.2125 198.989 20.0723C198.973 19.9322 198.963 19.7393 198.963 19.4939V19.047C198.963 18.8542 199.008 18.7578 199.097 18.7578C199.204 18.7578 199.285 18.8892 199.338 19.1521C199.499 20.081 199.956 20.8611 200.707 21.4921C201.459 22.1055 202.301 22.4122 203.23 22.4122C203.82 22.4122 204.295 22.2369 204.653 21.8864C205.028 21.5183 205.216 21.0451 205.216 20.4667C205.216 20.011 205.047 19.6254 204.706 19.3099C204.456 19.082 203.785 18.7928 202.693 18.4423C201.351 18.004 200.377 17.4782 199.768 16.8648C199.177 16.2338 198.882 15.4364 198.882 14.4723C198.882 13.4383 199.241 12.5618 199.956 11.8432C200.672 11.1247 201.549 10.7653 202.586 10.7653C202.98 10.7653 203.659 10.888 204.626 11.1334C204.77 11.1684 204.877 11.1859 204.948 11.1859C205.342 11.1859 205.637 10.9493 205.833 10.4761C205.87 10.3885 205.914 10.3446 205.968 10.3446C206.093 10.3446 206.156 10.4498 206.156 10.6601C206.156 10.6601 206.147 10.8266 206.129 11.1597C206.112 11.2298 206.102 11.3524 206.102 11.5277C206.102 12.2463 206.147 12.9825 206.236 13.7362V13.8676C206.236 14.0078 206.182 14.078 206.075 14.078C205.986 14.078 205.914 13.9991 205.86 13.8413C205.342 12.0536 204.287 11.1597 202.693 11.1597C202.103 11.1597 201.611 11.3174 201.217 11.6329C200.841 11.9484 200.653 12.3515 200.653 12.8423C200.653 13.2979 200.814 13.6573 201.137 13.9202C201.459 14.1831 202.086 14.481 203.015 14.8141C204.644 15.3749 205.745 15.9359 206.317 16.4967C206.89 17.0576 207.175 17.8376 207.175 18.8367Z" fill="#071C2C"/>
<path d="M109.655 39.9615C109.086 39.9615 108.601 39.8616 108.198 39.6618C107.795 39.462 107.487 39.186 107.272 38.8337C107.063 38.4761 106.958 38.066 106.958 37.6032C106.958 37.1352 107.039 36.7014 107.2 36.3018C107.361 35.8969 107.594 35.5446 107.9 35.2449C108.206 34.9452 108.571 34.7112 108.995 34.5429C109.419 34.3694 109.892 34.2827 110.412 34.2827C110.976 34.2827 111.459 34.3826 111.862 34.5824C112.264 34.7822 112.573 35.0609 112.788 35.4184C113.002 35.7707 113.11 36.1783 113.11 36.641C113.11 37.109 113.026 37.5454 112.86 37.9503C112.699 38.3499 112.465 38.6996 112.159 38.9993C111.854 39.299 111.489 39.5356 111.064 39.7091C110.646 39.8774 110.176 39.9615 109.655 39.9615ZM109.744 39.0624C110.098 39.0624 110.418 39.0019 110.702 38.881C110.987 38.7548 111.228 38.5839 111.427 38.3683C111.631 38.1475 111.786 37.8951 111.894 37.6111C112.001 37.3219 112.055 37.0196 112.055 36.7041C112.055 36.4044 111.988 36.1388 111.854 35.9075C111.719 35.6761 111.523 35.4973 111.266 35.3711C111.008 35.2449 110.691 35.1818 110.316 35.1818C109.967 35.1818 109.647 35.2449 109.357 35.3711C109.073 35.4921 108.829 35.6629 108.625 35.8838C108.426 36.0994 108.273 36.3518 108.166 36.641C108.064 36.9249 108.013 37.2246 108.013 37.5401C108.013 37.8398 108.077 38.1054 108.206 38.3368C108.34 38.5681 108.536 38.7469 108.794 38.8731C109.051 38.9993 109.368 39.0624 109.744 39.0624ZM117.118 35.6235C117.488 35.6235 117.802 35.6971 118.06 35.8444C118.317 35.9916 118.497 36.2098 118.599 36.499C118.707 36.7829 118.717 37.1326 118.632 37.548L118.156 39.8827H117.15L117.617 37.5717C117.687 37.2299 117.655 36.9644 117.52 36.7751C117.386 36.5805 117.142 36.4832 116.788 36.4832C116.417 36.4832 116.111 36.5831 115.87 36.7829C115.628 36.9828 115.464 37.2877 115.379 37.6979L114.928 39.8827H113.921L114.775 35.6708H115.733L115.491 36.8697L115.33 36.4911C115.534 36.1914 115.789 35.9732 116.095 35.8365C116.407 35.6945 116.747 35.6235 117.118 35.6235ZM119.836 39.8827L121.028 34.0303H122.034L121.503 36.6489L121.189 37.7452L121.028 38.739L120.794 39.8827H119.836ZM122.437 39.9379C122.082 39.9379 121.776 39.8774 121.519 39.7565C121.261 39.6303 121.062 39.4462 120.923 39.2044C120.783 38.9625 120.714 38.6628 120.714 38.3052C120.714 37.9108 120.762 37.5506 120.859 37.2246C120.961 36.8934 121.108 36.6094 121.301 36.3728C121.5 36.1309 121.736 35.9469 122.01 35.8207C122.289 35.6892 122.606 35.6235 122.96 35.6235C123.314 35.6235 123.634 35.6971 123.918 35.8444C124.203 35.9863 124.428 36.1967 124.595 36.4753C124.766 36.7488 124.852 37.08 124.852 37.4691C124.852 37.8267 124.79 38.1553 124.667 38.4551C124.549 38.7548 124.38 39.0151 124.16 39.2359C123.94 39.4568 123.682 39.6303 123.387 39.7565C123.097 39.8774 122.78 39.9379 122.437 39.9379ZM122.356 39.0939C122.646 39.0939 122.901 39.0282 123.121 38.8968C123.341 38.76 123.516 38.5734 123.644 38.3368C123.773 38.1001 123.838 37.8267 123.838 37.5165C123.838 37.1905 123.738 36.9328 123.54 36.7435C123.341 36.5542 123.062 36.4596 122.702 36.4596C122.418 36.4596 122.163 36.5279 121.937 36.6646C121.717 36.7961 121.543 36.9801 121.414 37.2168C121.285 37.4534 121.221 37.7268 121.221 38.037C121.221 38.363 121.32 38.6207 121.519 38.81C121.717 38.9993 121.997 39.0939 122.356 39.0939ZM127.884 39.9379C127.465 39.9379 127.098 39.8616 126.781 39.7091C126.47 39.5514 126.228 39.3358 126.056 39.0624C125.885 38.7837 125.799 38.4577 125.799 38.0844C125.799 37.6111 125.909 37.1905 126.129 36.8224C126.349 36.4491 126.649 36.1572 127.031 35.9469C127.417 35.7313 127.857 35.6235 128.351 35.6235C128.775 35.6235 129.143 35.6998 129.454 35.8522C129.771 35.9995 130.015 36.2124 130.187 36.4911C130.359 36.7645 130.445 37.0906 130.445 37.4691C130.445 37.9371 130.335 38.3578 130.114 38.7311C129.894 39.1045 129.591 39.3989 129.205 39.6145C128.823 39.8301 128.383 39.9379 127.884 39.9379ZM127.948 39.0939C128.238 39.0939 128.493 39.0282 128.713 38.8968C128.934 38.76 129.108 38.5734 129.237 38.3368C129.366 38.1001 129.43 37.8267 129.43 37.5165C129.43 37.1905 129.331 36.9328 129.132 36.7435C128.934 36.5542 128.654 36.4596 128.295 36.4596C128.01 36.4596 127.755 36.5279 127.53 36.6646C127.31 36.7961 127.135 36.9801 127.006 37.2168C126.878 37.4534 126.813 37.7268 126.813 38.037C126.813 38.3683 126.912 38.6286 127.111 38.8179C127.31 39.0019 127.589 39.0939 127.948 39.0939ZM133.283 39.9379C132.934 39.9379 132.615 39.8643 132.325 39.717C132.04 39.5698 131.812 39.3595 131.64 39.086C131.474 38.8074 131.391 38.4735 131.391 38.0844C131.391 37.7268 131.45 37.3982 131.568 37.0984C131.691 36.7987 131.863 36.5384 132.083 36.3176C132.303 36.0967 132.558 35.9259 132.848 35.8049C133.143 35.684 133.466 35.6235 133.814 35.6235C134.174 35.6235 134.483 35.6866 134.74 35.8128C135.003 35.939 135.202 36.1309 135.336 36.3886C135.47 36.641 135.532 36.9565 135.521 37.3351C135.511 37.8556 135.414 38.3131 135.232 38.7075C135.049 39.0966 134.794 39.3989 134.467 39.6145C134.139 39.8301 133.745 39.9379 133.283 39.9379ZM133.541 39.0939C133.831 39.0939 134.086 39.0282 134.306 38.8968C134.526 38.76 134.7 38.5734 134.829 38.3368C134.958 38.1001 135.022 37.8267 135.022 37.5165C135.022 37.1905 134.923 36.9328 134.724 36.7435C134.526 36.5542 134.247 36.4596 133.887 36.4596C133.602 36.4596 133.347 36.5279 133.122 36.6646C132.902 36.7961 132.727 36.9801 132.599 37.2168C132.47 37.4534 132.405 37.7268 132.405 38.037C132.405 38.363 132.505 38.6207 132.703 38.81C132.902 38.9993 133.181 39.0939 133.541 39.0939ZM134.595 39.8827L134.789 38.9204L135.062 37.8004L135.199 36.6725L135.401 35.6708H136.407L135.554 39.8827H134.595ZM137.273 39.8827L138.127 35.6708H139.085L138.843 36.8697L138.755 36.5227C138.953 36.1809 139.206 35.9469 139.512 35.8207C139.818 35.6892 140.191 35.6235 140.631 35.6235L140.446 36.5621C140.403 36.5516 140.362 36.5463 140.325 36.5463C140.287 36.5411 140.244 36.5384 140.196 36.5384C139.804 36.5384 139.479 36.641 139.222 36.846C138.964 37.0459 138.792 37.3666 138.706 37.8083L138.28 39.8827H137.273ZM142.919 39.9379C142.57 39.9379 142.25 39.8643 141.961 39.717C141.671 39.5698 141.443 39.3595 141.276 39.086C141.11 38.8074 141.027 38.4735 141.027 38.0844C141.027 37.7268 141.086 37.3982 141.204 37.0984C141.327 36.7987 141.499 36.5384 141.719 36.3176C141.939 36.0967 142.194 35.9259 142.484 35.8049C142.779 35.684 143.099 35.6235 143.442 35.6235C143.796 35.6235 144.102 35.684 144.36 35.8049C144.618 35.9259 144.816 36.1073 144.956 36.3491C145.095 36.591 145.165 36.8907 145.165 37.2483C145.165 37.6427 145.114 38.0055 145.012 38.3368C144.91 38.6628 144.763 38.9467 144.569 39.1886C144.376 39.4252 144.14 39.6092 143.861 39.7407C143.587 39.8721 143.273 39.9379 142.919 39.9379ZM143.176 39.0939C143.461 39.0939 143.713 39.0282 143.933 38.8968C144.159 38.76 144.333 38.5734 144.457 38.3368C144.585 38.1001 144.65 37.8267 144.65 37.5165C144.65 37.1905 144.551 36.9328 144.352 36.7435C144.159 36.5542 143.88 36.4596 143.515 36.4596C143.235 36.4596 142.983 36.5279 142.758 36.6646C142.532 36.7961 142.355 36.9801 142.226 37.2168C142.103 37.4534 142.041 37.7268 142.041 38.037C142.041 38.363 142.138 38.6207 142.331 38.81C142.53 38.9993 142.811 39.0939 143.176 39.0939ZM144.223 39.8827L144.424 38.9204L144.69 37.8004L144.827 36.6725L145.366 34.0303H146.373L145.181 39.8827H144.223ZM151.01 39.8827L151.453 37.6821L151.574 38.3446L149.931 34.3615H150.97L152.282 37.548L151.67 37.5559L154.303 34.3615H155.399L152.145 38.3525L152.5 37.6821L152.049 39.8827H151.01ZM156.908 39.9379C156.489 39.9379 156.122 39.8616 155.805 39.7091C155.494 39.5514 155.253 39.3358 155.08 39.0624C154.909 38.7837 154.823 38.4577 154.823 38.0844C154.823 37.6111 154.933 37.1905 155.154 36.8224C155.373 36.4491 155.674 36.1572 156.054 35.9469C156.442 35.7313 156.881 35.6235 157.375 35.6235C157.799 35.6235 158.166 35.6998 158.478 35.8522C158.795 35.9995 159.039 36.2124 159.211 36.4911C159.383 36.7645 159.468 37.0906 159.468 37.4691C159.468 37.9371 159.359 38.3578 159.139 38.7311C158.918 39.1045 158.616 39.3989 158.228 39.6145C157.848 39.8301 157.408 39.9379 156.908 39.9379ZM156.972 39.0939C157.262 39.0939 157.517 39.0282 157.737 38.8968C157.958 38.76 158.133 38.5734 158.26 38.3368C158.39 38.1001 158.455 37.8267 158.455 37.5165C158.455 37.1905 158.354 36.9328 158.156 36.7435C157.958 36.5542 157.678 36.4596 157.319 36.4596C157.034 36.4596 156.779 36.5279 156.554 36.6646C156.335 36.7961 156.16 36.9801 156.031 37.2168C155.902 37.4534 155.838 37.7268 155.838 38.037C155.838 38.3683 155.937 38.6286 156.135 38.8179C156.335 39.0019 156.613 39.0939 156.972 39.0939ZM162.219 39.9379C161.859 39.9379 161.55 39.8643 161.293 39.717C161.04 39.5645 160.86 39.3463 160.753 39.0624C160.646 38.7732 160.636 38.4209 160.721 38.0055L161.196 35.6708H162.202L161.728 37.9818C161.664 38.3236 161.696 38.5918 161.825 38.7863C161.959 38.9756 162.201 39.0703 162.55 39.0703C162.909 39.0703 163.209 38.9704 163.45 38.7706C163.697 38.5707 163.861 38.2658 163.942 37.8556L164.393 35.6708H165.391L164.537 39.8827H163.58L163.821 38.6838L163.982 39.0624C163.778 39.3621 163.521 39.583 163.209 39.7249C162.904 39.8669 162.573 39.9379 162.219 39.9379ZM166.258 39.8827L167.112 35.6708H168.07L167.829 36.8697L167.74 36.5227C167.938 36.1809 168.191 35.9469 168.496 35.8207C168.803 35.6892 169.176 35.6235 169.615 35.6235L169.431 36.5621C169.387 36.5516 169.347 36.5463 169.31 36.5463C169.273 36.5411 169.229 36.5384 169.181 36.5384C168.79 36.5384 168.464 36.641 168.206 36.846C167.949 37.0459 167.777 37.3666 167.691 37.8083L167.265 39.8827H166.258ZM172.767 39.8827L173.894 34.3615H176.172C176.746 34.3615 177.238 34.4562 177.645 34.6455C178.054 34.8295 178.365 35.0924 178.58 35.4342C178.799 35.776 178.91 36.1783 178.91 36.641C178.91 37.13 178.824 37.5743 178.652 37.9739C178.486 38.3736 178.247 38.7153 177.935 38.9993C177.63 39.278 177.263 39.4962 176.833 39.6539C176.404 39.8064 175.926 39.8827 175.399 39.8827H172.767ZM173.99 39.0151H175.431C175.936 39.0151 176.369 38.9152 176.728 38.7153C177.093 38.5103 177.372 38.2342 177.565 37.8872C177.759 37.5401 177.855 37.1458 177.855 36.7041C177.855 36.4044 177.788 36.1441 177.654 35.9232C177.519 35.7024 177.318 35.5315 177.05 35.4106C176.786 35.2896 176.458 35.2291 176.06 35.2291H174.763L173.99 39.0151ZM179.725 39.8827L180.577 35.6708H181.537L181.295 36.8697L181.206 36.5227C181.404 36.1809 181.658 35.9469 181.963 35.8207C182.268 35.6892 182.642 35.6235 183.082 35.6235L182.897 36.5621C182.854 36.5516 182.813 36.5463 182.777 36.5463C182.738 36.5411 182.696 36.5384 182.647 36.5384C182.255 36.5384 181.931 36.641 181.673 36.846C181.416 37.0459 181.243 37.3666 181.158 37.8083L180.732 39.8827H179.725ZM185.588 39.9379C185.159 39.9379 184.784 39.8616 184.469 39.7091C184.152 39.5514 183.905 39.3358 183.728 39.0624C183.557 38.7837 183.469 38.4577 183.469 38.0844C183.469 37.6059 183.577 37.1826 183.791 36.8145C184.006 36.4464 184.3 36.1572 184.67 35.9469C185.046 35.7313 185.472 35.6235 185.95 35.6235C186.353 35.6235 186.702 35.6971 186.997 35.8444C187.292 35.9916 187.52 36.2045 187.681 36.4832C187.848 36.7567 187.931 37.0853 187.931 37.4691C187.931 37.5691 187.925 37.6716 187.915 37.7768C187.905 37.8819 187.888 37.9792 187.866 38.0686H184.219L184.332 37.4139H187.391L186.98 37.6348C187.024 37.3666 187.005 37.1431 186.925 36.9644C186.844 36.7856 186.715 36.6489 186.537 36.5542C186.361 36.4596 186.148 36.4122 185.902 36.4122C185.606 36.4122 185.348 36.4806 185.128 36.6173C184.914 36.7488 184.748 36.9381 184.63 37.1852C184.511 37.4271 184.452 37.711 184.452 38.037C184.452 38.3788 184.551 38.6417 184.751 38.8258C184.954 39.0098 185.268 39.1018 185.692 39.1018C185.934 39.1018 186.165 39.065 186.385 38.9914C186.605 38.9125 186.787 38.8047 186.932 38.668L187.351 39.3542C187.126 39.5488 186.858 39.696 186.546 39.7959C186.241 39.8906 185.92 39.9379 185.588 39.9379ZM190.75 39.9379C190.401 39.9379 190.082 39.8643 189.792 39.717C189.507 39.5698 189.278 39.3595 189.107 39.086C188.941 38.8074 188.857 38.4735 188.857 38.0844C188.857 37.7268 188.916 37.3982 189.035 37.0984C189.158 36.7987 189.33 36.5384 189.55 36.3176C189.77 36.0967 190.025 35.9259 190.315 35.8049C190.61 35.684 190.932 35.6235 191.281 35.6235C191.64 35.6235 191.949 35.6866 192.207 35.8128C192.471 35.939 192.669 36.1309 192.803 36.3886C192.937 36.641 192.999 36.9565 192.989 37.3351C192.977 37.8556 192.882 38.3131 192.699 38.7075C192.516 39.0966 192.261 39.3989 191.934 39.6145C191.607 39.8301 191.211 39.9379 190.75 39.9379ZM191.008 39.0939C191.298 39.0939 191.553 39.0282 191.773 38.8968C191.993 38.76 192.167 38.5734 192.296 38.3368C192.425 38.1001 192.489 37.8267 192.489 37.5165C192.489 37.1905 192.39 36.9328 192.19 36.7435C191.993 36.5542 191.714 36.4596 191.353 36.4596C191.07 36.4596 190.815 36.5279 190.588 36.6646C190.369 36.7961 190.194 36.9801 190.065 37.2168C189.936 37.4534 189.872 37.7268 189.872 38.037C189.872 38.363 189.971 38.6207 190.171 38.81C190.369 38.9993 190.647 39.0939 191.008 39.0939ZM192.063 39.8827L192.256 38.9204L192.529 37.8004L192.667 36.6725L192.868 35.6708H193.875L193.021 39.8827H192.063ZM200.908 35.6235C201.284 35.6235 201.598 35.6971 201.849 35.8444C202.103 35.9916 202.279 36.2098 202.381 36.499C202.483 36.7829 202.492 37.1326 202.405 37.548L201.93 39.8827H200.923L201.398 37.5717C201.469 37.2246 201.438 36.9565 201.311 36.7672C201.182 36.5779 200.949 36.4832 200.61 36.4832C200.261 36.4832 199.974 36.5831 199.747 36.7829C199.528 36.9775 199.375 37.2799 199.29 37.69L198.838 39.8827H197.832L198.307 37.5717C198.377 37.2246 198.347 36.9565 198.218 36.7672C198.09 36.5779 197.855 36.4832 197.518 36.4832C197.169 36.4832 196.882 36.5831 196.656 36.7829C196.436 36.9775 196.284 37.2825 196.198 37.6979L195.747 39.8827H194.74L195.594 35.6708H196.552L196.319 36.8303L196.149 36.4911C196.347 36.1914 196.594 35.9732 196.889 35.8365C197.191 35.6945 197.518 35.6235 197.872 35.6235C198.151 35.6235 198.399 35.6708 198.613 35.7655C198.828 35.8549 198.999 35.9942 199.128 36.1835C199.263 36.3676 199.34 36.5963 199.362 36.8697L198.879 36.7672C199.098 36.3886 199.38 36.1046 199.724 35.9153C200.073 35.7208 200.467 35.6235 200.908 35.6235ZM205.085 39.9379C204.709 39.9379 204.357 39.8932 204.03 39.8038C203.703 39.7144 203.45 39.6066 203.274 39.4804L203.691 38.7232C203.869 38.8442 204.089 38.9441 204.352 39.0229C204.621 39.0966 204.899 39.1334 205.189 39.1334C205.521 39.1334 205.766 39.0887 205.922 38.9993C206.083 38.9099 206.164 38.7863 206.164 38.6286C206.164 38.5129 206.107 38.4261 205.994 38.3683C205.882 38.3105 205.736 38.2631 205.56 38.2263C205.387 38.1895 205.199 38.1501 204.996 38.108C204.797 38.066 204.609 38.0081 204.433 37.9345C204.26 37.8609 204.119 37.7531 204.005 37.6111C203.892 37.4691 203.837 37.2799 203.837 37.0432C203.837 36.7435 203.923 36.4885 204.094 36.2782C204.267 36.0678 204.505 35.9075 204.81 35.797C205.122 35.6814 205.479 35.6235 205.882 35.6235C206.172 35.6235 206.456 35.6551 206.736 35.7182C207.014 35.7813 207.246 35.8706 207.427 35.9863L207.058 36.7435C206.863 36.6226 206.655 36.5384 206.429 36.4911C206.209 36.4438 205.994 36.4201 205.785 36.4201C205.458 36.4201 205.213 36.4701 205.052 36.57C204.897 36.6646 204.818 36.7856 204.818 36.9328C204.818 37.0485 204.875 37.1379 204.988 37.201C205.1 37.2641 205.243 37.3167 205.414 37.3587C205.592 37.3955 205.78 37.435 205.978 37.477C206.182 37.5138 206.37 37.5691 206.541 37.6427C206.719 37.7163 206.863 37.8241 206.977 37.966C207.09 38.1028 207.145 38.2868 207.145 38.5182C207.145 38.8231 207.058 39.0834 206.88 39.299C206.709 39.5093 206.467 39.6697 206.155 39.7801C205.843 39.8853 205.488 39.9379 205.085 39.9379Z" fill="#071C2C"/>
<defs>
<clipPath id="clip0_1369_557">
<rect x="1" width="40" height="40" rx="8" fill="white"/>
</clipPath>
</defs>
</svg>
