<svg width="400" height="401" viewBox="0 0 400 401" fill="none" xmlns="http://www.w3.org/2000/svg">
<path d="M127.563 360.539C131.266 364.437 135.172 368.135 139.267 371.619H315.779C335.243 353.115 353.667 326.555 369.811 289.843C369.811 289.843 398.403 217.451 391.747 153.995C385.091 90.5392 343.411 40.3952 284.371 29.7152C225.331 19.0352 172.851 77.6032 106.955 97.9072C41.0585 118.211 -7.20545 172.627 10.1385 245.619C27.4825 318.611 75.9146 306.051 127.563 360.539Z" fill="#8CBFDA"/>
<path d="M53.0055 154.477H353.006C355.225 154.477 357.353 155.359 358.923 156.928C360.492 158.498 361.374 160.626 361.374 162.845V360.045H44.6455V162.837C44.6476 160.621 45.5291 158.496 47.0964 156.928C48.6638 155.361 50.7889 154.48 53.0055 154.477Z" fill="white" stroke="#263238" stroke-width="0.722" stroke-linecap="round" stroke-linejoin="round"/>
<path d="M348.505 170.533H57.4971V334.989H348.505V170.533Z" stroke="#263238" stroke-width="0.722" stroke-linecap="round" stroke-linejoin="round"/>
<path d="M312.551 350.149H94.8945V360.869H312.551V350.149Z" fill="#263238" stroke="#263238" stroke-width="0.722" stroke-linecap="round" stroke-linejoin="round"/>
<path d="M312.551 355.31H94.8945V360.87H312.551V355.31Z" fill="white" stroke="#263238" stroke-width="0.722" stroke-linecap="round" stroke-linejoin="round"/>
<path d="M19.0293 367.222C19.0293 367.222 22.6053 371.598 33.3333 375.166H374.133C374.133 375.166 382.077 373.182 385.653 367.622L19.0293 367.222Z" fill="#263238" stroke="#263238" stroke-width="0.722" stroke-linecap="round" stroke-linejoin="round"/>
<path d="M384.887 359.397H19.8225C18.9875 359.397 18.3105 360.074 18.3105 360.909V366.237C18.3105 367.072 18.9875 367.749 19.8225 367.749H384.887C385.722 367.749 386.399 367.072 386.399 366.237V360.909C386.399 360.074 385.722 359.397 384.887 359.397Z" fill="white" stroke="#263238" stroke-width="0.722" stroke-linecap="round" stroke-linejoin="round"/>
<path d="M205.712 160.693C205.713 160.142 205.551 159.603 205.246 159.144C204.941 158.685 204.507 158.327 203.998 158.115C203.49 157.903 202.93 157.847 202.389 157.953C201.849 158.06 201.352 158.324 200.962 158.714C200.572 159.103 200.306 159.599 200.198 160.139C200.09 160.679 200.144 161.239 200.355 161.748C200.565 162.258 200.922 162.693 201.38 162.999C201.838 163.305 202.377 163.469 202.928 163.469C203.665 163.469 204.371 163.177 204.893 162.656C205.415 162.136 205.709 161.43 205.712 160.693Z" fill="white" stroke="#263238" stroke-width="0.722" stroke-linecap="round" stroke-linejoin="round"/>
<path d="M7.99902 375.165H397.599" stroke="#263238" stroke-width="0.722" stroke-linecap="round" stroke-linejoin="round"/>
<path d="M266.616 265.5H139V273.108H266.616V265.5Z" fill="#2DC48B"/>
<path d="M188.911 265.5H180.415L176.055 273.1H184.551L188.911 265.5Z" fill="#263238"/>
<path d="M266.618 273.1V266.236L262.682 273.1H266.618Z" fill="#263238"/>
<path d="M206.23 265.5H197.734L193.382 273.1H201.878L206.23 265.5Z" fill="#263238"/>
<path d="M171.584 265.5H163.088L158.728 273.1H167.232L171.584 265.5Z" fill="#263238"/>
<path d="M141.409 273.1H149.905L154.265 265.5H145.761L141.409 273.1Z" fill="#263238"/>
<path d="M258.205 265.5H249.709L245.357 273.1H253.853L258.205 265.5Z" fill="#263238"/>
<path d="M223.559 265.5H215.063L210.703 273.1H219.207L223.559 265.5Z" fill="#263238"/>
<path d="M240.886 265.5H232.382L228.03 273.1H236.526L240.886 265.5Z" fill="#263238"/>
<path d="M208.063 111.597C210.803 108.857 210.803 104.415 208.063 101.675C205.323 98.9354 200.881 98.9354 198.141 101.675C195.401 104.415 195.401 108.857 198.141 111.597C200.881 114.337 205.323 114.337 208.063 111.597Z" fill="white" stroke="#263238" stroke-width="0.722" stroke-linecap="round" stroke-linejoin="round"/>
<path d="M203.299 49.9709V17.1949" stroke="#263238" stroke-width="1.444" stroke-linecap="round" stroke-linejoin="round"/>
<path d="M203.299 71.6185V49.9705" stroke="#808080" stroke-width="1.444" stroke-miterlimit="10"/>
<path d="M192.429 71.6199L170.773 109.14H235.381L213.717 71.6199H192.429Z" fill="#92E3A9" stroke="#263238" stroke-width="0.702312" stroke-miterlimit="10"/>
<path d="M194.603 71.6199L177.363 109.14H228.787L211.547 71.6199H194.603Z" fill="#263238" stroke="#263238" stroke-width="0.722" stroke-linecap="round" stroke-linejoin="round"/>
<path d="M143.751 154.475H53.0075C50.7903 154.475 48.6639 155.356 47.096 156.924C45.5282 158.492 44.6475 160.618 44.6475 162.835V321.299L143.751 154.475Z" fill="#8CBFDA" stroke="#263238" stroke-width="0.722" stroke-miterlimit="10"/>
<path d="M262.237 154.475H352.981C355.199 154.475 357.325 155.356 358.893 156.924C360.461 158.492 361.341 160.618 361.341 162.835V321.787L262.237 154.475Z" fill="#8CBFDA" stroke="#263238" stroke-width="0.722" stroke-miterlimit="10"/>
<path d="M143.751 154.475L44.6475 321.323" stroke="#263238" stroke-width="0.722" stroke-linecap="round" stroke-linejoin="round"/>
<path d="M262.237 154.475L361.341 321.787" stroke="#263238" stroke-width="0.722" stroke-linecap="round" stroke-linejoin="round"/>
<path d="M57.4932 299.947V170.531H133.845" stroke="#263238" stroke-width="0.722" stroke-linecap="round" stroke-linejoin="round"/>
<path d="M271.932 170.531H348.5V300.603" stroke="#263238" stroke-width="0.722" stroke-linecap="round" stroke-linejoin="round"/>
<path d="M262.238 154.476L235.382 109.14H170.774L143.75 154.476" fill="#FFE886" fill-opacity="0.93"/>
<path d="M262.238 154.476L235.382 109.14H170.774L143.75 154.476" stroke="#263238" stroke-width="0.722" stroke-miterlimit="10"/>
<path d="M168.623 258.5L166.612 242.107H169.628L170.787 253.451H170.437L172.251 242.107H174.634L176.448 253.451H176.098L177.256 242.107H180.273L178.262 258.5H175.071L173.213 248.642H173.694L171.814 258.5H168.623ZM186.063 258.85C184.831 258.85 183.848 258.478 183.112 257.735C182.383 256.992 182.019 256.016 182.019 254.806V245.801C182.019 244.584 182.383 243.608 183.112 242.872C183.848 242.129 184.831 241.757 186.063 241.757C187.301 241.757 188.285 242.129 189.013 242.872C189.742 243.608 190.106 244.584 190.106 245.801V254.806C190.106 256.016 189.742 256.992 189.013 257.735C188.285 258.478 187.301 258.85 186.063 258.85ZM186.063 255.899C186.412 255.899 186.682 255.801 186.871 255.604C187.061 255.4 187.155 255.134 187.155 254.806V245.801C187.155 245.473 187.061 245.211 186.871 245.014C186.682 244.81 186.412 244.708 186.063 244.708C185.713 244.708 185.443 244.81 185.254 245.014C185.064 245.211 184.97 245.473 184.97 245.801V254.806C184.97 255.134 185.064 255.4 185.254 255.604C185.443 255.801 185.713 255.899 186.063 255.899ZM193.06 258.5V242.107H197.104C198.342 242.107 199.326 242.479 200.054 243.222C200.783 243.958 201.147 244.934 201.147 246.151V248.774C201.147 249.546 200.994 250.227 200.688 250.817C200.382 251.407 199.945 251.885 199.377 252.249L199.158 251.287C199.792 251.513 200.28 251.848 200.623 252.293C200.972 252.737 201.147 253.276 201.147 253.91V258.5H198.196V253.91C198.196 253.582 198.102 253.32 197.912 253.123C197.723 252.919 197.453 252.817 197.104 252.817H196.011V258.5H193.06ZM196.011 249.866H197.104C197.453 249.866 197.723 249.768 197.912 249.571C198.102 249.367 198.196 249.101 198.196 248.774V246.151C198.196 245.823 198.102 245.561 197.912 245.364C197.723 245.16 197.453 245.058 197.104 245.058H196.011V249.866ZM209.866 258.5L207.352 251.047L206.806 251.877V247.047L210.085 242.107H213.254L209.385 247.965L213.035 258.5H209.866ZM204.074 258.5V242.107H207.025V258.5H204.074Z" fill="#071C2C"/>
<path d="M226.546 258.5H223.596V242.107H226.546V258.5ZM229.743 258.5V242.107H231.929L235.666 252.73L234.879 252.752V242.107H237.611V258.5H235.426L231.688 247.877L232.475 247.856V258.5H229.743Z" fill="#071C2C"/>
<path d="M162.596 298.37V281.977H166.639C167.878 281.977 168.861 282.349 169.59 283.092C170.318 283.828 170.683 284.804 170.683 286.021V288.207C170.683 289.416 170.318 290.392 169.59 291.135C168.861 291.879 167.878 292.25 166.639 292.25H165.546V298.37H162.596ZM165.546 289.299H166.639C166.989 289.299 167.258 289.201 167.448 289.004C167.637 288.8 167.732 288.534 167.732 288.207V286.021C167.732 285.693 167.637 285.431 167.448 285.234C167.258 285.03 166.989 284.928 166.639 284.928H165.546V289.299ZM172.862 298.37V281.977H176.906C178.145 281.977 179.128 282.349 179.857 283.092C180.585 283.828 180.95 284.804 180.95 286.021V288.644C180.95 289.416 180.797 290.097 180.491 290.687C180.185 291.277 179.747 291.755 179.179 292.119L178.961 291.157C179.594 291.383 180.083 291.718 180.425 292.163C180.775 292.607 180.95 293.146 180.95 293.78V298.37H177.999V293.78C177.999 293.452 177.904 293.19 177.715 292.993C177.525 292.789 177.256 292.687 176.906 292.687H175.813V298.37H172.862ZM175.813 289.737H176.906C177.256 289.737 177.525 289.638 177.715 289.441C177.904 289.237 177.999 288.972 177.999 288.644V286.021C177.999 285.693 177.904 285.431 177.715 285.234C177.525 285.03 177.256 284.928 176.906 284.928H175.813V289.737ZM187.68 298.72C186.448 298.72 185.465 298.348 184.729 297.605C184 296.862 183.636 295.886 183.636 294.676V285.671C183.636 284.454 184 283.478 184.729 282.742C185.465 281.999 186.448 281.628 187.68 281.628C188.918 281.628 189.902 281.999 190.63 282.742C191.359 283.478 191.723 284.454 191.723 285.671V294.676C191.723 295.886 191.359 296.862 190.63 297.605C189.902 298.348 188.918 298.72 187.68 298.72ZM187.68 295.769C188.029 295.769 188.299 295.671 188.488 295.474C188.678 295.27 188.772 295.004 188.772 294.676V285.671C188.772 285.343 188.678 285.081 188.488 284.884C188.299 284.68 188.029 284.578 187.68 284.578C187.33 284.578 187.06 284.68 186.871 284.884C186.681 285.081 186.587 285.343 186.587 285.671V294.676C186.587 295.004 186.681 295.27 186.871 295.474C187.06 295.671 187.33 295.769 187.68 295.769ZM198.48 298.72C197.249 298.72 196.265 298.348 195.529 297.605C194.801 296.862 194.436 295.886 194.436 294.676V285.671C194.436 284.454 194.801 283.478 195.529 282.742C196.265 281.999 197.249 281.628 198.48 281.628C199.719 281.628 200.702 281.999 201.431 282.742C202.159 283.478 202.524 284.454 202.524 285.671V286.545H199.573V285.671C199.573 285.343 199.478 285.081 199.289 284.884C199.099 284.68 198.83 284.578 198.48 284.578C198.13 284.578 197.861 284.68 197.671 284.884C197.482 285.081 197.387 285.343 197.387 285.671V294.676C197.387 295.004 197.482 295.27 197.671 295.474C197.861 295.671 198.13 295.769 198.48 295.769C198.83 295.769 199.099 295.671 199.289 295.474C199.478 295.27 199.573 295.004 199.573 294.676V293.124H198.196V290.174H202.524V294.676C202.524 295.886 202.159 296.862 201.431 297.605C200.702 298.348 199.719 298.72 198.48 298.72ZM205.264 298.37V281.977H209.307C210.546 281.977 211.53 282.349 212.258 283.092C212.987 283.828 213.351 284.804 213.351 286.021V288.644C213.351 289.416 213.198 290.097 212.892 290.687C212.586 291.277 212.149 291.755 211.581 292.119L211.362 291.157C211.996 291.383 212.484 291.718 212.826 292.163C213.176 292.607 213.351 293.146 213.351 293.78V298.37H210.4V293.78C210.4 293.452 210.306 293.19 210.116 292.993C209.927 292.789 209.657 292.687 209.307 292.687H208.215V298.37H205.264ZM208.215 289.737H209.307C209.657 289.737 209.927 289.638 210.116 289.441C210.306 289.237 210.4 288.972 210.4 288.644V286.021C210.4 285.693 210.306 285.431 210.116 285.234C209.927 285.03 209.657 284.928 209.307 284.928H208.215V289.737ZM223.054 281.977V284.928H219.229V288.207H222.463V291.157H219.229V295.419H223.054V298.37H216.278V281.977H223.054ZM229.125 298.72C227.893 298.72 226.91 298.348 226.174 297.605C225.445 296.862 225.081 295.886 225.081 294.676V293.802H228.032V294.676C228.032 295.004 228.126 295.27 228.316 295.474C228.505 295.671 228.775 295.769 229.125 295.769C229.474 295.769 229.744 295.671 229.933 295.474C230.123 295.27 230.217 295.004 230.217 294.676V292.993C230.217 292.804 230.21 292.654 230.196 292.545C230.181 292.436 230.141 292.348 230.075 292.283C230.017 292.217 229.911 292.159 229.758 292.108C229.613 292.05 229.401 291.981 229.125 291.9C228.112 291.594 227.329 291.336 226.775 291.124C226.221 290.906 225.824 290.673 225.584 290.425C225.343 290.177 225.198 289.857 225.147 289.463C225.103 289.063 225.081 288.527 225.081 287.857V285.671C225.081 284.454 225.445 283.478 226.174 282.742C226.91 281.999 227.893 281.628 229.125 281.628C230.363 281.628 231.347 281.999 232.075 282.742C232.804 283.478 233.168 284.454 233.168 285.671V286.545H230.217V285.671C230.217 285.343 230.123 285.081 229.933 284.884C229.744 284.68 229.474 284.578 229.125 284.578C228.775 284.578 228.505 284.68 228.316 284.884C228.126 285.081 228.032 285.343 228.032 285.671V287.857C228.032 288.046 228.039 288.196 228.054 288.305C228.068 288.414 228.105 288.502 228.163 288.567C228.228 288.633 228.338 288.695 228.491 288.753C228.644 288.804 228.855 288.87 229.125 288.95C230.137 289.256 230.92 289.518 231.474 289.737C232.028 289.948 232.425 290.177 232.665 290.425C232.906 290.673 233.048 290.997 233.092 291.398C233.143 291.791 233.168 292.323 233.168 292.993V294.676C233.168 295.886 232.804 296.862 232.075 297.605C231.347 298.348 230.363 298.72 229.125 298.72ZM239.285 298.72C238.053 298.72 237.07 298.348 236.334 297.605C235.605 296.862 235.241 295.886 235.241 294.676V293.802H238.192V294.676C238.192 295.004 238.287 295.27 238.476 295.474C238.665 295.671 238.935 295.769 239.285 295.769C239.634 295.769 239.904 295.671 240.093 295.474C240.283 295.27 240.378 295.004 240.378 294.676V292.993C240.378 292.804 240.37 292.654 240.356 292.545C240.341 292.436 240.301 292.348 240.235 292.283C240.177 292.217 240.072 292.159 239.919 292.108C239.773 292.05 239.562 291.981 239.285 291.9C238.272 291.594 237.489 291.336 236.935 291.124C236.381 290.906 235.984 290.673 235.744 290.425C235.503 290.177 235.358 289.857 235.307 289.463C235.263 289.063 235.241 288.527 235.241 287.857V285.671C235.241 284.454 235.605 283.478 236.334 282.742C237.07 281.999 238.053 281.628 239.285 281.628C240.523 281.628 241.507 281.999 242.235 282.742C242.964 283.478 243.328 284.454 243.328 285.671V286.545H240.378V285.671C240.378 285.343 240.283 285.081 240.093 284.884C239.904 284.68 239.634 284.578 239.285 284.578C238.935 284.578 238.665 284.68 238.476 284.884C238.287 285.081 238.192 285.343 238.192 285.671V287.857C238.192 288.046 238.199 288.196 238.214 288.305C238.228 288.414 238.265 288.502 238.323 288.567C238.389 288.633 238.498 288.695 238.651 288.753C238.804 288.804 239.015 288.87 239.285 288.95C240.297 289.256 241.081 289.518 241.634 289.737C242.188 289.948 242.585 290.177 242.826 290.425C243.066 290.673 243.208 290.997 243.252 291.398C243.303 291.791 243.328 292.323 243.328 292.993V294.676C243.328 295.886 242.964 296.862 242.235 297.605C241.507 298.348 240.523 298.72 239.285 298.72Z" fill="#071C2C"/>
<path opacity="0.5" fill-rule="evenodd" clip-rule="evenodd" d="M215.561 191.09C215.116 190.907 214.55 190.907 213.42 190.907C212.29 190.907 211.725 190.907 211.28 191.09C210.687 191.333 210.215 191.802 209.968 192.393C209.855 192.661 209.812 192.975 209.793 193.432C209.785 193.762 209.693 194.085 209.526 194.37C209.358 194.655 209.121 194.892 208.836 195.06C208.545 195.221 208.219 195.306 207.887 195.308C207.555 195.31 207.227 195.228 206.936 195.069C206.529 194.855 206.234 194.737 205.943 194.699C205.306 194.615 204.661 194.786 204.15 195.175C203.767 195.466 203.484 195.952 202.92 196.924C202.354 197.895 202.073 198.38 202.009 198.855C201.925 199.488 202.098 200.128 202.49 200.635C202.669 200.866 202.92 201.059 203.309 201.303C203.883 201.66 204.251 202.269 204.251 202.94C204.251 203.612 203.883 204.221 203.31 204.577C202.92 204.821 202.669 205.015 202.489 205.246C202.296 205.496 202.153 205.782 202.071 206.088C201.989 206.393 201.968 206.712 202.009 207.026C202.073 207.5 202.354 207.986 202.92 208.957C203.486 209.928 203.767 210.413 204.15 210.705C204.66 211.094 205.305 211.265 205.943 211.182C206.234 211.143 206.529 211.025 206.936 210.811C207.228 210.653 207.555 210.57 207.887 210.572C208.22 210.574 208.546 210.659 208.837 210.821C209.422 211.158 209.768 211.778 209.793 212.449C209.812 212.906 209.855 213.219 209.968 213.487C210.213 214.077 210.685 214.546 211.28 214.791C211.725 214.974 212.29 214.974 213.42 214.974C214.55 214.974 215.116 214.974 215.561 214.791C216.154 214.547 216.626 214.079 216.873 213.487C216.986 213.219 217.029 212.906 217.047 212.449C217.071 211.778 217.419 211.157 218.005 210.821C218.295 210.66 218.622 210.574 218.954 210.572C219.286 210.571 219.613 210.653 219.905 210.811C220.312 211.025 220.607 211.143 220.898 211.182C221.536 211.266 222.181 211.094 222.691 210.705C223.073 210.414 223.356 209.928 223.921 208.957C224.486 207.986 224.768 207.501 224.832 207.026C224.873 206.712 224.852 206.393 224.769 206.088C224.686 205.782 224.544 205.496 224.35 205.246C224.172 205.015 223.921 204.821 223.532 204.578C222.958 204.221 222.59 203.612 222.59 202.94C222.59 202.269 222.958 201.66 223.531 201.304C223.921 201.059 224.172 200.866 224.351 200.635C224.545 200.384 224.687 200.098 224.77 199.793C224.852 199.487 224.873 199.169 224.832 198.855C224.768 198.381 224.486 197.895 223.921 196.924C223.355 195.952 223.073 195.468 222.691 195.175C222.179 194.786 221.535 194.615 220.898 194.699C220.607 194.737 220.312 194.855 219.905 195.069C219.613 195.228 219.286 195.31 218.953 195.308C218.621 195.307 218.294 195.221 218.004 195.06C217.719 194.892 217.482 194.654 217.314 194.37C217.147 194.085 217.055 193.762 217.047 193.432C217.029 192.974 216.986 192.661 216.873 192.393C216.75 192.1 216.572 191.835 216.347 191.611C216.121 191.387 215.855 191.21 215.561 191.09Z" fill="#0072AE"/>
<path d="M217.058 202.94C217.058 204.934 215.428 206.55 213.42 206.55C211.41 206.55 209.782 204.934 209.782 202.94C209.782 200.946 211.41 199.33 213.42 199.33C215.429 199.33 217.058 200.946 217.058 202.94Z" fill="black"/>
<path fill-rule="evenodd" clip-rule="evenodd" d="M199.049 199.673C198.503 199.449 197.81 199.449 196.426 199.449C195.042 199.449 194.349 199.449 193.804 199.673C193.078 199.971 192.5 200.545 192.197 201.269C192.058 201.598 192.005 201.983 191.983 202.541C191.973 202.946 191.861 203.342 191.655 203.691C191.45 204.04 191.159 204.331 190.81 204.536C190.454 204.733 190.054 204.838 189.648 204.84C189.241 204.842 188.84 204.742 188.482 204.548C187.984 204.285 187.623 204.141 187.266 204.094C186.486 203.991 185.696 204.201 185.07 204.677C184.601 205.034 184.255 205.63 183.563 206.819C182.87 208.009 182.526 208.603 182.447 209.185C182.344 209.96 182.556 210.745 183.037 211.365C183.255 211.648 183.563 211.886 184.039 212.183C184.743 212.621 185.194 213.367 185.194 214.19C185.194 215.012 184.743 215.758 184.041 216.194C183.563 216.493 183.255 216.731 183.036 217.014C182.798 217.32 182.624 217.671 182.523 218.045C182.422 218.419 182.397 218.81 182.447 219.194C182.526 219.775 182.87 220.37 183.563 221.56C184.256 222.75 184.601 223.344 185.07 223.702C185.695 224.178 186.485 224.387 187.266 224.285C187.623 224.238 187.984 224.094 188.482 223.831C188.84 223.637 189.241 223.536 189.648 223.538C190.055 223.54 190.456 223.645 190.811 223.843C191.528 224.256 191.952 225.015 191.983 225.838C192.005 226.398 192.058 226.781 192.197 227.11C192.498 227.832 193.076 228.407 193.804 228.706C194.349 228.93 195.042 228.93 196.426 228.93C197.81 228.93 198.503 228.93 199.049 228.706C199.775 228.408 200.353 227.834 200.655 227.11C200.794 226.781 200.847 226.398 200.869 225.838C200.899 225.015 201.325 224.255 202.042 223.843C202.398 223.646 202.798 223.541 203.205 223.539C203.612 223.537 204.012 223.637 204.37 223.831C204.868 224.094 205.229 224.238 205.586 224.285C206.367 224.389 207.157 224.178 207.782 223.702C208.251 223.345 208.598 222.75 209.289 221.56C209.982 220.37 210.327 219.776 210.405 219.194C210.456 218.81 210.429 218.419 210.328 218.045C210.227 217.671 210.053 217.32 209.815 217.014C209.597 216.731 209.289 216.493 208.813 216.196C208.11 215.758 207.659 215.012 207.659 214.19C207.659 213.367 208.11 212.621 208.811 212.185C209.289 211.886 209.597 211.648 209.817 211.365C210.054 211.059 210.228 210.708 210.329 210.334C210.43 209.96 210.456 209.569 210.405 209.185C210.327 208.604 209.982 208.009 209.289 206.819C208.596 205.63 208.251 205.035 207.782 204.677C207.156 204.201 206.367 203.991 205.586 204.094C205.229 204.141 204.868 204.285 204.37 204.548C204.012 204.742 203.611 204.843 203.204 204.841C202.797 204.839 202.397 204.734 202.041 204.536C201.692 204.33 201.401 204.039 201.196 203.69C200.991 203.341 200.879 202.946 200.869 202.541C200.847 201.981 200.794 201.598 200.655 201.269C200.505 200.911 200.286 200.585 200.011 200.311C199.735 200.037 199.408 199.82 199.049 199.673ZM196.426 218.612C198.888 218.612 200.882 216.632 200.882 214.19C200.882 211.747 198.886 209.767 196.426 209.767C193.964 209.767 191.97 211.747 191.97 214.19C191.97 216.632 193.966 218.612 196.426 218.612Z" fill="#0072AE"/>
</svg>
